<svg width="179" height="274" viewBox="0 0 179 274" fill="none" xmlns="http://www.w3.org/2000/svg">
<rect x="38.3984" y="27.5996" width="24" height="24" rx="4.8" fill="#E9FBFA"/>
<path d="M93.9227 35.9994H73.8315C73.0272 35.9994 72.2558 35.6825 71.6871 35.1185C71.1184 34.5545 70.7988 33.7895 70.7988 32.9919C70.7988 32.1942 71.1184 31.4293 71.6871 30.8653C72.2558 30.3012 73.0272 29.9844 73.8315 29.9844H93.9227C94.727 29.9844 95.4984 30.3012 96.0671 30.8653C96.6358 31.4293 96.9554 32.1942 96.9554 32.9919C96.9554 33.7895 96.6358 34.5545 96.0671 35.1185C95.4984 35.6825 94.727 35.9994 93.9227 35.9994Z" fill="#F2F2F2"/>
<path d="M137.517 49.2143H73.8315C73.0272 49.2143 72.2558 48.8974 71.6871 48.3334C71.1184 47.7694 70.7988 47.0044 70.7988 46.2067C70.7988 45.4091 71.1184 44.6441 71.6871 44.0801C72.2558 43.5161 73.0272 43.1992 73.8315 43.1992H137.517C138.321 43.1992 139.093 43.5161 139.661 44.0801C140.23 44.6441 140.55 45.4091 140.55 46.2067C140.55 47.0044 140.23 47.7694 139.661 48.3334C139.093 48.8974 138.321 49.2143 137.517 49.2143Z" fill="#F2F2F2"/>
<rect x="38.3984" y="27.5996" width="24" height="24" rx="4.8" fill="#E9FBFA"/>
<path d="M93.9227 35.9994H73.8315C73.0272 35.9994 72.2558 35.6825 71.6871 35.1185C71.1184 34.5545 70.7988 33.7895 70.7988 32.9919C70.7988 32.1942 71.1184 31.4293 71.6871 30.8653C72.2558 30.3012 73.0272 29.9844 73.8315 29.9844H93.9227C94.727 29.9844 95.4984 30.3012 96.0671 30.8653C96.6358 31.4293 96.9554 32.1942 96.9554 32.9919C96.9554 33.7895 96.6358 34.5545 96.0671 35.1185C95.4984 35.6825 94.727 35.9994 93.9227 35.9994Z" fill="#F2F2F2"/>
<path d="M137.517 49.2143H73.8315C73.0272 49.2143 72.2558 48.8974 71.6871 48.3334C71.1184 47.7694 70.7988 47.0044 70.7988 46.2067C70.7988 45.4091 71.1184 44.6441 71.6871 44.0801C72.2558 43.5161 73.0272 43.1992 73.8315 43.1992H137.517C138.321 43.1992 139.093 43.5161 139.661 44.0801C140.23 44.6441 140.55 45.4091 140.55 46.2067C140.55 47.0044 140.23 47.7694 139.661 48.3334C139.093 48.8974 138.321 49.2143 137.517 49.2143Z" fill="#F2F2F2"/>
<rect x="38.3984" y="72" width="24" height="24" rx="4.8" fill="#E9FBFA"/>
<path d="M93.9227 80.3998H73.8315C73.0272 80.3998 72.2558 80.0829 71.6871 79.5189C71.1184 78.9549 70.7988 78.1899 70.7988 77.3923C70.7988 76.5946 71.1184 75.8297 71.6871 75.2656C72.2558 74.7016 73.0272 74.3848 73.8315 74.3848H93.9227C94.727 74.3848 95.4984 74.7016 96.0671 75.2656C96.6358 75.8297 96.9554 76.5946 96.9554 77.3923C96.9554 78.1899 96.6358 78.9549 96.0671 79.5189C95.4984 80.0829 94.727 80.3998 93.9227 80.3998Z" fill="#F2F2F2"/>
<path d="M137.517 93.6146H73.8315C73.0272 93.6146 72.2558 93.2978 71.6871 92.7338C71.1184 92.1697 70.7988 91.4048 70.7988 90.6071C70.7988 89.8095 71.1184 89.0445 71.6871 88.4805C72.2558 87.9165 73.0272 87.5996 73.8315 87.5996H137.517C138.321 87.5996 139.093 87.9165 139.661 88.4805C140.23 89.0445 140.55 89.8095 140.55 90.6071C140.55 91.4048 140.23 92.1697 139.661 92.7338C139.093 93.2978 138.321 93.6146 137.517 93.6146Z" fill="#F2F2F2"/>
<rect x="38.3984" y="177.6" width="24" height="24" rx="4.8" fill="#E9FBFA"/>
<path d="M93.9227 185.999H73.8315C73.0272 185.999 72.2558 185.683 71.6871 185.119C71.1184 184.555 70.7988 183.79 70.7988 182.992C70.7988 182.194 71.1184 181.429 71.6871 180.865C72.2558 180.301 73.0272 179.984 73.8315 179.984H93.9227C94.727 179.984 95.4984 180.301 96.0671 180.865C96.6358 181.429 96.9554 182.194 96.9554 182.992C96.9554 183.79 96.6358 184.555 96.0671 185.119C95.4984 185.683 94.727 185.999 93.9227 185.999Z" fill="#F2F2F2"/>
<path d="M137.517 199.214H73.8315C73.0272 199.214 72.2558 198.897 71.6871 198.333C71.1184 197.769 70.7988 197.004 70.7988 196.207C70.7988 195.409 71.1184 194.644 71.6871 194.08C72.2558 193.516 73.0272 193.199 73.8315 193.199H137.517C138.321 193.199 139.093 193.516 139.661 194.08C140.23 194.644 140.55 195.409 140.55 196.207C140.55 197.004 140.23 197.769 139.661 198.333C139.093 198.897 138.321 199.214 137.517 199.214Z" fill="#F2F2F2"/>
<rect x="38.3984" y="222" width="24" height="24" rx="4.8" fill="#E9FBFA"/>
<path d="M93.9227 230.4H73.8315C73.0272 230.4 72.2558 230.083 71.6871 229.519C71.1184 228.955 70.7988 228.19 70.7988 227.392C70.7988 226.595 71.1184 225.83 71.6871 225.266C72.2558 224.702 73.0272 224.385 73.8315 224.385H93.9227C94.727 224.385 95.4984 224.702 96.0671 225.266C96.6358 225.83 96.9554 226.595 96.9554 227.392C96.9554 228.19 96.6358 228.955 96.0671 229.519C95.4984 230.083 94.727 230.4 93.9227 230.4Z" fill="#F2F2F2"/>
<path d="M137.517 243.615H73.8315C73.0272 243.615 72.2558 243.298 71.6871 242.734C71.1184 242.17 70.7988 241.405 70.7988 240.607C70.7988 239.809 71.1184 239.045 71.6871 238.48C72.2558 237.916 73.0272 237.6 73.8315 237.6H137.517C138.321 237.6 139.093 237.916 139.661 238.48C140.23 239.045 140.55 239.809 140.55 240.607C140.55 241.405 140.23 242.17 139.661 242.734C139.093 243.298 138.321 243.615 137.517 243.615Z" fill="#F2F2F2"/>
<g filter="url(#filter0_dd_3861_51774)">
<path d="M162.915 156.001H15.8846C14.2183 156 12.6208 155.548 11.4425 154.744C10.2643 153.94 9.60149 152.85 9.59961 151.713V119.489C9.60149 118.352 10.2643 117.262 11.4425 116.458C12.6208 115.655 14.2183 115.202 15.8846 115.201H162.915C164.581 115.202 166.178 115.655 167.357 116.458C168.535 117.262 169.198 118.352 169.2 119.489V151.713C169.198 152.85 168.535 153.94 167.357 154.744C166.178 155.548 164.581 156 162.915 156.001Z" fill="white"/>
<path d="M15.8848 115.801H162.914C164.481 115.802 165.956 116.229 167.019 116.954C168.014 117.633 168.532 118.487 168.594 119.323L168.6 119.49V151.713C168.598 152.601 168.08 153.524 167.019 154.248C165.956 154.973 164.481 155.4 162.914 155.401H15.8848L15.5928 155.396C14.1359 155.345 12.7767 154.928 11.7803 154.248C10.7189 153.524 10.2007 152.6 10.1992 151.712V119.49C10.2007 118.602 10.7188 117.678 11.7803 116.954C12.7767 116.274 14.1359 115.857 15.5928 115.807L15.8848 115.801Z" stroke="#EEFDFC" stroke-width="1.2"/>
</g>
<g clip-path="url(#clip0_3861_51774)">
<path d="M56.7246 132.976L58.2996 131.401L56.7246 129.826" stroke="#27CEC5" stroke-width="1.2" stroke-linecap="round" stroke-linejoin="round"/>
<path d="M45.6992 135.6C45.6992 134.486 46.1417 133.418 46.9294 132.631C47.717 131.843 48.7853 131.4 49.8992 131.4H58.2992" stroke="#27CEC5" stroke-width="1.2" stroke-linecap="round" stroke-linejoin="round"/>
<path d="M47.2742 138.227L45.6992 139.802L47.2742 141.377" stroke="#27CEC5" stroke-width="1.2" stroke-linecap="round" stroke-linejoin="round"/>
<path d="M58.2992 135.602C58.2992 136.715 57.8567 137.784 57.0691 138.571C56.2814 139.359 55.2131 139.802 54.0992 139.802H45.6992" stroke="#27CEC5" stroke-width="1.2" stroke-linecap="round" stroke-linejoin="round"/>
<path d="M51.4746 134.55L52.5246 134.025V137.175" stroke="#27CEC5" stroke-width="0.525" stroke-linecap="round" stroke-linejoin="round"/>
<path d="M70.493 141.171C68.6227 141.171 66.6398 139.877 66.6398 136.115V136.101C66.6398 132.684 68.0953 130.687 70.5773 130.687C72.3 130.687 73.5867 131.671 73.9242 133.148L73.9453 133.239H72.6586L72.6305 133.162C72.3281 132.325 71.6039 131.805 70.5633 131.805C68.6719 131.805 67.9266 133.64 67.8703 135.771C67.8633 135.841 67.8633 135.911 67.8633 135.989H67.8914C68.2992 135.089 69.3398 134.357 70.718 134.357C72.6516 134.357 74.0859 135.785 74.0859 137.711V137.725C74.0859 139.722 72.5672 141.171 70.493 141.171ZM68.1656 137.711C68.1656 139.012 69.1781 140.046 70.4789 140.046C71.7727 140.046 72.7992 139.033 72.7992 137.754V137.739C72.7992 136.418 71.8359 135.468 70.5 135.468C69.1711 135.468 68.1656 136.411 68.1656 137.704V137.711Z" fill="#6D6D6D"/>
</g>
<g clip-path="url(#clip1_3861_51774)">
<path d="M112.95 133.895C112.95 138.489 106.139 142.207 105.849 142.361C105.772 142.402 105.687 142.423 105.6 142.423C105.513 142.423 105.428 142.402 105.351 142.361C105.061 142.207 98.25 138.489 98.25 133.895C98.2512 132.816 98.6803 131.782 99.4431 131.019C100.206 130.256 101.24 129.827 102.319 129.826C103.674 129.826 104.86 130.409 105.6 131.394C106.34 130.409 107.526 129.826 108.881 129.826C109.96 129.827 110.994 130.256 111.757 131.019C112.52 131.782 112.949 132.816 112.95 133.895Z" fill="#F97066"/>
</g>
<g clip-path="url(#clip2_3861_51774)">
<path d="M120.623 141.002V140.13L124.195 136.404C125.566 134.976 125.883 134.428 125.883 133.584V133.57C125.876 132.536 125.095 131.791 123.991 131.791C122.726 131.791 121.784 132.663 121.784 133.753V133.788H120.56V133.746C120.56 131.988 122.079 130.687 123.97 130.687C125.805 130.687 127.148 131.918 127.148 133.507V133.521C127.148 134.632 126.635 135.468 124.772 137.374L122.36 139.849V139.877H127.317V141.002H120.623ZM128.399 141.002V140.13L131.971 136.404C133.342 134.976 133.659 134.428 133.659 133.584V133.57C133.652 132.536 132.871 131.791 131.767 131.791C130.502 131.791 129.559 132.663 129.559 133.753V133.788H128.336V133.746C128.336 131.988 129.855 130.687 131.746 130.687C133.581 130.687 134.924 131.918 134.924 133.507V133.521C134.924 134.632 134.411 135.468 132.548 137.374L130.136 139.849V139.877H135.093V141.002H128.399Z" fill="#6D6D6D"/>
</g>
<defs>
<filter id="filter0_dd_3861_51774" x="-0.000391006" y="115.201" width="178.8" height="69.6008" filterUnits="userSpaceOnUse" color-interpolation-filters="sRGB">
<feFlood flood-opacity="0" result="BackgroundImageFix"/>
<feColorMatrix in="SourceAlpha" type="matrix" values="0 0 0 0 0 0 0 0 0 0 0 0 0 0 0 0 0 0 127 0" result="hardAlpha"/>
<feMorphology radius="4.8" operator="erode" in="SourceAlpha" result="effect1_dropShadow_3861_51774"/>
<feOffset dy="4.8"/>
<feGaussianBlur stdDeviation="2.4"/>
<feComposite in2="hardAlpha" operator="out"/>
<feColorMatrix type="matrix" values="0 0 0 0 0.0470588 0 0 0 0 0.0470588 0 0 0 0 0.0509804 0 0 0 0.05 0"/>
<feBlend mode="normal" in2="BackgroundImageFix" result="effect1_dropShadow_3861_51774"/>
<feColorMatrix in="SourceAlpha" type="matrix" values="0 0 0 0 0 0 0 0 0 0 0 0 0 0 0 0 0 0 127 0" result="hardAlpha"/>
<feMorphology radius="9.6" operator="erode" in="SourceAlpha" result="effect2_dropShadow_3861_51774"/>
<feOffset dy="19.2"/>
<feGaussianBlur stdDeviation="9.6"/>
<feComposite in2="hardAlpha" operator="out"/>
<feColorMatrix type="matrix" values="0 0 0 0 0.0470588 0 0 0 0 0.0470588 0 0 0 0 0.0509804 0 0 0 0.1 0"/>
<feBlend mode="normal" in2="effect1_dropShadow_3861_51774" result="effect2_dropShadow_3861_51774"/>
<feBlend mode="normal" in="SourceGraphic" in2="effect2_dropShadow_3861_51774" result="shape"/>
</filter>
<clipPath id="clip0_3861_51774">
<rect width="32" height="16.8" fill="white" transform="translate(43.5996 127.201)"/>
</clipPath>
<clipPath id="clip1_3861_51774">
<rect width="16.8" height="16.8" fill="white" transform="translate(97.1992 127.201)"/>
</clipPath>
<clipPath id="clip2_3861_51774">
<rect width="15.6" height="16.8" fill="white" transform="translate(120 127.201)"/>
</clipPath>
</defs>
</svg>
