<svg width="375" height="812" viewBox="0 0 375 812" fill="none" xmlns="http://www.w3.org/2000/svg">
<g opacity="0.05">
<mask id="mask0_2392_21314" style="mask-type:luminance" maskUnits="userSpaceOnUse" x="0" y="0" width="375" height="812">
<path d="M375 0H0V812H375V0Z" fill="white"/>
</mask>
<g mask="url(#mask0_2392_21314)">
<path d="M382.794 419.522C382.799 422.949 382.804 426.375 382.794 429.802C379.219 437.029 375.454 443.281 371.554 448.462C365.014 457.134 358.074 462.93 351.934 474.281C333.639 508.109 325.349 585.284 306.079 612.825C295.904 627.376 283.869 625.914 274.294 644.264C267.079 658.086 262.164 681.519 257.904 704.937C252.354 735.452 247.499 767.298 243.389 800.119C249.514 731.927 260.214 668.104 274.534 614.399C277.544 603.112 280.739 592.15 282.979 579.125C287.859 550.722 287.704 515.724 292.064 486.444C298.489 443.326 313.059 421.321 325.669 396.474C348.789 350.89 368.174 285.539 381.389 208.92C382.204 279.095 382.669 349.316 382.794 419.522Z" fill="#EEFDFC"/>
<path d="M124.945 740.122L124.95 740.155C124.575 742.769 124.19 745.385 123.795 747.982C124.19 745.368 124.57 742.753 124.945 740.122Z" fill="#EEFDFC"/>
<path d="M262.104 163.212C258.439 173.833 255.774 187.994 253.094 201.149C249.754 217.501 246.464 233.97 243.224 250.533C236.744 283.662 230.464 317.216 224.414 351.188C221.519 367.445 218.809 384.139 215.629 399.827C212.589 414.8 208.949 427.807 204.574 438.769C200.514 448.937 196.089 457.413 191.704 465.955C187.224 474.676 182.829 483.723 178.699 494.115C170.529 514.675 163.264 539.018 157.209 566.22C157.149 566.056 157.064 566.009 157.009 566.237C156.929 566.547 156.859 566.87 156.779 567.179C157.644 558.295 157.724 548.827 158.369 539.766C159.049 530.103 159.219 520.342 159.199 510.452C159.149 489.616 158.389 467.449 161.354 448.139C162.749 439.029 164.754 431.087 166.704 423.195C168.844 414.539 170.984 405.883 173.119 397.227C177.399 379.933 181.674 362.62 185.949 345.308C189.869 329.441 193.704 313.268 197.964 298.342C202.234 283.368 206.999 270.458 212.369 259.82C217.899 248.891 223.844 240.915 229.569 231.271C235.274 221.673 240.679 210.175 246.109 199.083C251.589 187.88 256.974 176.074 262.104 163.212Z" fill="#EEFDFC"/>
<path d="M120.675 322.314C116.41 340.292 112.455 359.098 108.385 377.514C104.46 395.265 100.515 413.762 95.0102 426.786C85.6452 448.954 71.3702 447.086 65.4352 483.805C62.4602 502.172 62.0552 523.609 61.4602 543.877C60.7102 569.39 59.9602 594.885 59.2102 620.382C58.4602 645.83 57.8602 671.375 56.9502 696.759C56.7352 702.686 56.4152 708.662 55.7552 714.249C55.0902 719.868 54.1052 725.034 53.0452 729.937C50.8652 740.105 48.5002 749.88 46.2152 759.804C37.5602 797.448 28.8402 834.93 20.1402 872.461C15.1102 871.795 10.0852 871.129 5.05519 870.462C2.43519 870.121 -0.179805 869.779 -2.7998 869.422C-2.7748 832.541 -2.7448 795.642 -2.7198 758.747C-2.6898 721.508 -2.6698 684.254 -2.6598 646.999C-2.6548 633.163 -2.6698 619.326 -2.7098 605.488C1.6102 590.011 5.8152 574.226 10.0352 558.457C12.1802 550.418 14.3252 542.412 16.4702 534.373C18.5002 526.773 20.4752 518.979 22.6952 511.962C26.9902 498.402 32.3252 489.551 37.7252 481.561C43.5702 472.905 49.4402 464.395 55.3502 456.21C61.3202 447.928 67.3652 440.295 73.5102 433.458C76.2052 430.452 78.9602 427.334 81.2602 421.7C83.2952 416.698 84.8402 410.007 86.2302 403.138C87.7602 395.586 89.1552 387.775 90.9352 380.791C92.7352 373.725 94.8002 367.361 97.0802 361.921C99.3352 356.529 101.785 352.159 104.355 348.57C107.085 344.753 109.895 341.635 112.625 337.851C115.28 334.165 117.79 329.699 120.075 323.917C120.28 323.403 120.475 322.85 120.675 322.314Z" fill="#EEFDFC"/>
<path d="M147.095 -41.6562C138.935 -25.0752 131.19 -6.36673 123.98 14.3393C116.99 34.4119 110.545 56.4171 103.43 76.035C99.9047 85.7449 96.2097 94.8572 92.2497 102.652C88.0847 110.837 83.6497 117.122 79.0697 122.433C74.4897 127.745 69.8197 132.29 65.2697 137.895C60.7247 143.498 56.3997 150.416 52.3997 159.397C48.4547 168.264 44.8497 178.576 41.3747 189.262C38.6097 197.772 35.8847 206.428 33.1797 215.148C37.1097 200.078 40.7947 184.275 43.8847 167.257C45.6797 157.415 47.2097 147.168 48.5897 136.643C49.8897 126.704 51.1397 116.619 52.9097 107.429C54.8347 97.4247 57.3847 90.1005 60.4247 83.7669C63.2647 77.8555 66.0947 72.2365 68.4997 64.4413C72.9547 49.9893 75.8997 31.5894 78.7797 13.6442C80.2547 4.45236 81.7247 -4.75573 83.3847 -13.6065C84.2447 -18.17 85.1697 -24.8284 86.8797 -26.3062C87.7897 -27.102 88.8047 -27.0208 89.7397 -27.2644C90.8247 -27.5404 91.9047 -27.8165 92.9897 -28.0926C109.465 -32.2825 125.93 -36.9272 142.415 -40.6136C143.975 -40.9579 145.535 -41.299 147.095 -41.6562Z" fill="#EEFDFC"/>
<path d="M387.109 4.77381C379.584 29.8321 372.734 56.9854 365.129 81.7839C361.649 93.1357 357.909 103.773 353.669 112.039C351.524 116.213 349.274 119.867 347.279 124.787C345.344 129.546 343.729 135.441 342.184 141.482C338.634 155.27 335.119 169.155 331.589 182.992C328.274 195.984 325.034 209.268 321.584 221.886C319.139 230.835 316.449 239.426 313.284 245.581C312.494 246.831 311.714 248.163 310.944 249.576C310.914 249.624 310.884 249.657 310.854 249.706C306.284 256.218 301.139 256.835 296.604 263.656C288.949 275.154 284.584 300.537 281.209 324.345C280.999 325.839 280.794 327.333 280.594 328.827C281.614 303.233 282.724 277.687 284.689 252.612C286.319 231.858 288.469 211.46 291.454 192.33C292.959 182.667 294.664 173.264 296.639 164.527C298.095 158.097 299.734 152.339 301.488 146.892C301.561 147.088 301.668 147.147 301.736 146.866C301.944 145.997 302.147 145.117 302.355 144.246C302.887 142.658 303.425 141.086 303.974 139.533C308.404 127.029 312.429 113.468 316.159 98.7547C319.734 84.6421 323.059 69.9125 326.444 55.3289C333.209 26.2268 340.354 -3.21627 349.889 -23.2564C351.044 -25.6762 352.229 -27.9336 353.434 -30.061C353.719 -30.5482 353.464 -31.9611 353.184 -31.4576C343.289 -14.0971 335.764 13.5109 328.974 42.0284C322.034 71.1629 315.634 102.051 307.404 127.629C306.233 131.269 305.007 134.718 303.787 138.19C304.395 135.618 305.007 133.057 305.612 130.476C307.721 123.215 309.648 115.391 311.501 107.427C314.118 96.1807 316.575 84.5528 318.992 72.847C323.796 49.5848 328.505 25.941 334.208 4.84526C335.779 -0.967033 337.423 -6.57795 339.155 -11.8901C340.924 -17.3142 342.832 -22.1034 344.696 -27.1557C344.88 -27.6526 344.64 -28.6546 344.441 -28.2324C342.669 -24.4826 341.048 -19.8038 339.487 -15.1852C337.938 -10.599 336.458 -5.77245 335.041 -0.757538C332.174 9.38759 329.556 20.2473 327.07 31.3944C323.117 49.1123 319.488 67.5609 315.677 85.5987C316.342 81.8943 316.95 78.073 317.452 74.0342C318.3 67.2231 319.03 60.2838 320.005 53.6448C320.872 47.7432 321.863 42.0414 322.949 36.536C325.16 25.3271 327.757 14.9774 330.521 5.16682C333.638 -5.89587 337.027 -16.0345 340.268 -26.6944C340.482 -27.396 340.16 -28.424 339.937 -27.7712C336.881 -18.8392 333.951 -9.34687 331.134 0.376013C328.387 9.8618 325.78 19.8185 323.502 30.5467C321.168 41.5395 319.286 53.2632 317.827 65.7404C317.011 72.7171 316.189 79.6126 314.994 86.016C313.851 92.1483 312.499 97.8387 311.174 103.562C311.139 103.713 311.104 103.864 311.069 104.015C311.179 103.443 311.292 102.88 311.399 102.303C312.456 96.5915 313.384 90.5795 314.065 84.2881C314.878 76.7674 315.318 68.9056 316.011 61.2695C317.414 45.7928 320.429 33.2896 323.53 20.9959C327.338 5.89761 331.151 -9.18772 334.938 -24.3429C335.095 -24.9681 334.825 -25.8695 334.662 -25.2393C331.229 -11.9274 327.817 1.43974 324.403 14.8053C321.415 26.5062 318.195 38.1746 316.352 52.3375C315.372 59.8794 314.882 67.9149 314.237 75.7913C313.657 82.8752 312.873 89.7301 311.849 96.2651C309.904 108.666 307.25 119.634 304.521 130.288C303.002 136.219 301.454 142.073 299.96 148.074C298.808 152.702 297.558 157.5 296.573 162.649C295.591 166.925 294.678 171.372 293.823 175.924C290.463 193.853 287.938 213.308 286.018 233.316C282.078 274.436 280.548 317.374 278.833 359.907C277.933 382.286 277.163 405.005 273.018 423.876C270.933 433.377 268.398 441.789 265.983 450.38C263.418 459.523 260.858 468.65 258.313 477.842C257.517 480.703 256.73 483.578 255.95 486.47C255.953 486.457 255.956 486.446 255.958 486.434C256.003 486.223 255.897 485.952 255.848 486.158C253.829 494.611 251.556 502.429 249.049 509.372C248.69 510.367 248.334 511.358 247.986 512.37C247.922 512.415 247.857 512.511 247.798 512.732C247.689 513.138 247.575 513.529 247.466 513.932C247.003 515.371 246.566 516.884 246.174 518.565C238.851 544.153 230.064 564.713 221.117 583.925C211.54 604.486 201.677 623.823 192.72 647.248C188.341 658.697 184.247 671.181 180.479 684.731C176.814 697.913 173.439 711.917 170.226 726.281C163.717 755.382 157.881 785.984 151.509 815.39C145.166 844.663 138.26 872.8 129.85 896.131C128.841 898.929 127.81 901.644 126.761 904.283C126.546 904.824 126.834 906.052 127.055 905.519C135.826 884.331 143.054 857.317 149.487 828.791C156.026 799.793 161.862 769.215 168.201 739.764C174.602 710.027 181.579 681.493 190.053 657.664C198.801 633.065 208.67 613.222 218.341 592.761C221.528 586.018 224.711 579.173 227.835 572.058C226.674 574.871 225.511 577.677 224.349 580.49C217.133 597.954 209.917 615.419 202.701 632.883C199.303 641.106 195.865 649.187 192.6 657.966C189.418 666.525 186.501 675.928 183.871 686.277C181.299 696.395 178.975 707.141 176.711 717.994C174.25 729.797 171.807 741.644 169.375 753.506C164.39 777.817 159.325 801.984 154.436 826.497C153.825 829.561 153.214 832.622 152.603 835.687C152.509 836.156 152.736 836.574 152.832 836.122C157.959 812.098 162.947 787.759 167.984 763.536C170.476 751.549 172.953 739.527 175.431 727.511C177.708 716.474 179.989 705.428 182.484 694.893C185.019 684.187 187.788 674.125 190.895 665.134C194.032 656.058 197.416 647.948 200.781 639.797C207.996 622.326 215.21 604.853 222.425 587.382C224.5 582.356 226.579 577.339 228.654 572.308C227.308 576.009 225.966 579.727 224.617 583.418C217.885 601.846 211.119 620.142 204.327 638.337C201.012 647.22 197.593 655.806 194.432 665.274C191.39 674.383 188.838 684.879 186.335 695.539C181.203 717.401 176.238 739.679 171.464 762.38C166.711 784.978 162.125 807.921 157.83 831.469C157.286 834.453 156.745 837.443 156.206 840.437C156.134 840.833 156.32 841.183 156.394 840.796C160.857 817.592 165.429 794.569 170.15 771.911C174.85 749.357 179.716 727.165 184.752 705.389C187.29 694.41 189.8 683.213 192.726 673.274C195.641 663.374 198.999 654.947 202.249 646.259C209.014 628.172 215.744 609.951 222.445 591.616C225.015 584.584 227.577 577.518 230.138 570.45C228.371 575.943 226.606 581.442 224.842 586.944C218.79 605.829 212.706 624.588 206.517 643.001C200.741 660.186 195.008 677.725 190.241 698.003C187.7 708.812 185.433 720.264 183.143 731.639C180.794 743.301 178.446 754.961 176.098 766.623C171.403 789.939 166.656 813.167 162.069 836.707C161.491 839.677 160.912 842.647 160.333 845.618C160.236 846.12 160.475 846.561 160.576 846.079C165.384 822.989 170.078 799.647 174.779 776.326C177.129 764.668 179.479 753.011 181.829 741.352C184.1 730.088 186.328 718.71 188.721 707.711C193.358 686.406 198.998 668.002 204.879 650.34C210.974 632.034 217.06 613.73 223.051 595.064C227.483 581.253 231.903 567.4 236.37 553.712C233.089 565.656 229.737 577.395 226.296 588.855C220.985 606.547 215.398 623.302 209.998 640.698C204.669 657.864 199.748 675.983 195.425 695.938C190.823 717.185 186.533 739.177 182.133 760.866C177.101 785.666 172.092 810.538 167.211 835.651C167.151 835.958 167.297 836.226 167.359 835.934C171.979 814.106 176.468 791.985 180.994 769.954C185.416 748.431 189.698 726.603 194.175 705.202C196.387 694.628 198.684 684.229 201.193 674.375C203.539 665.164 206.047 656.402 208.629 647.888C213.948 630.348 219.552 613.756 224.886 596.267C228.946 582.954 232.888 569.268 236.729 555.292C236.494 556.242 236.261 557.199 236.028 558.153C235.85 558.777 235.673 559.404 235.495 560.026C232.72 569.713 229.945 579.4 227.17 589.091C224.339 598.978 221.508 608.863 218.677 618.751C216.075 627.838 213.469 636.937 211.09 646.66C208.643 656.665 206.52 667.405 204.429 678.214C202.436 688.518 200.478 698.893 198.527 709.285C194.586 730.28 190.656 751.293 186.583 772.023C182.026 795.215 177.183 817.714 172.029 839.546C171.943 839.911 172.133 840.387 172.226 840.039C182.075 803.015 189.826 760.468 197.614 718.772C199.557 708.365 201.502 697.96 203.474 687.609C205.508 676.933 207.529 666.185 209.789 655.99C212.103 645.551 214.732 635.915 217.411 626.457C220.131 616.853 222.872 607.312 225.604 597.743C227.616 590.698 229.627 583.652 231.639 576.605C231.625 576.664 231.611 576.722 231.597 576.782C229.371 586.171 227.163 595.601 224.953 605.029C222.76 614.378 220.56 623.708 218.376 633.078C216.328 641.869 214.439 650.879 212.831 660.597C211.195 670.479 209.663 680.538 208.034 690.433C206.42 700.232 204.769 709.967 203.075 719.623C199.707 738.825 196.177 757.727 192.49 776.3C188.342 797.192 184.017 817.721 179.602 838.024C179.513 838.43 179.715 838.789 179.804 838.407C188.084 803.311 195.496 766.084 202.319 727.84C205.718 708.791 208.932 689.425 212.021 669.828C213.612 659.736 215.301 649.958 217.347 640.755C219.433 631.373 221.635 622.251 223.791 613.038C225.111 607.396 226.433 601.759 227.753 596.118C227.414 597.688 227.074 599.255 226.74 600.837C222.929 618.928 219.59 637.963 216.531 657.492C210.421 696.489 205.329 737.12 198.803 775.433C195.012 797.682 190.713 818.823 186.327 839.862C186.293 840.028 186.374 840.234 186.413 840.078C195.035 805.744 201.367 766.016 207.148 726.104C210.196 705.057 213.147 683.789 216.352 662.963C216.13 664.548 215.911 666.136 215.697 667.733C213.746 682.274 212.106 697.225 210.54 712.242C207.462 741.76 204.594 771.55 200.251 799.444C197.835 814.963 194.9 829.59 191.41 842.792C191.352 843.013 191.445 843.328 191.509 843.115C198.101 821.459 202.267 793.38 205.565 765.231C209.045 735.536 211.625 704.797 215.333 675.375C216.391 666.979 217.543 658.703 218.827 650.648C220.107 642.623 221.587 634.998 222.986 627.195C223.072 626.714 222.855 626.118 222.741 626.579C222.048 629.393 221.421 632.362 220.83 635.407C222.352 626.602 223.948 617.931 225.655 609.464C227.821 598.724 230.134 588.305 232.518 578.062C233.474 573.953 234.443 569.877 235.418 565.814C233.55 574.177 231.716 582.622 229.939 591.197C224.41 617.879 219.407 645.82 215.591 675.546C213.656 690.62 212.084 706.1 210.799 721.882C209.508 737.737 208.435 753.769 207.136 769.616C205.828 785.575 204.292 801.425 202.069 816.319C200.05 829.844 197.439 842.285 194.65 854.241C191.884 866.093 188.947 877.512 186.201 889.412C183.508 901.084 180.881 913.387 179.062 926.784C178.633 929.939 178.284 933.184 177.91 936.409C177.772 937.601 178.361 938.117 178.498 936.934C179.301 930.009 180.395 923.251 181.516 916.822C182.613 910.531 183.831 904.471 185.116 898.57C187.756 886.44 190.674 874.989 193.493 863.303C196.263 851.82 198.961 840.081 201.185 827.382C203.615 813.501 205.379 798.528 206.794 783.269C209.696 751.979 211.308 719.603 214.819 688.889C218.283 658.591 223.08 630.079 228.471 602.979C233.163 579.394 238.312 556.82 243.565 534.531C243.83 533.547 244.101 532.58 244.363 531.588C244.417 531.383 244.426 531.156 244.412 530.95C244.527 530.464 244.642 529.979 244.757 529.491C244.781 529.417 244.806 529.347 244.829 529.272C244.853 529.196 244.864 529.105 244.87 529.012C245.252 527.398 245.634 525.782 246.017 524.17C246.786 520.93 247.557 517.695 248.328 514.46C248.371 514.278 248.392 514.085 248.403 513.89C248.719 512.901 249.044 511.923 249.374 510.937C251.301 505.19 253.061 498.916 254.652 492.196C254.686 492.232 254.723 492.23 254.757 492.12C260.017 474.808 265.022 456.473 270.002 438.317C271.277 433.656 272.527 428.849 273.622 423.717C274.027 422.434 274.432 421.135 274.822 419.755C275.672 416.75 276.492 413.681 277.272 410.482C278.807 404.213 280.167 397.522 281.192 390.23C283.242 375.679 284.162 359.829 285.997 345.034C289.457 317.085 295.307 292.059 302.217 272.133C304.692 264.987 307.317 258.394 310.102 252.596C313.872 247.757 317.082 239.734 319.927 230.282C323.392 218.768 326.442 205.906 329.597 193.515C333.127 179.679 336.657 165.842 340.182 152.006C341.817 145.591 343.402 138.981 345.202 133.037C347.007 127.093 349.092 122.595 351.312 118.454C353.462 114.459 355.582 110.415 357.577 105.64C358.595 103.195 359.585 100.622 360.552 97.9654C366.609 82.5634 373.754 72.3874 379.752 56.7223C381.399 52.4203 383.15 47.6214 384.381 41.9894C384.589 41.0377 384.134 39.948 383.89 40.7584C382.524 45.304 381.258 49.9649 379.753 54.0655C378.255 58.1498 376.663 61.8509 375.034 65.3604C371.773 72.3923 368.373 78.7194 365.114 85.7627C364.554 86.9726 364.005 88.2231 363.46 89.4963C366.936 78.8315 370.134 67.2523 373.362 55.8145C377.132 42.4652 380.892 29.0835 384.657 15.7179C385.587 12.4212 386.507 9.1245 387.407 5.73034C387.584 5.08237 387.304 4.12421 387.109 4.77381ZM303.896 134.59C304.312 132.997 304.728 131.397 305.142 129.793C304.797 131.306 304.455 132.828 304.111 134.345C303.746 135.715 303.385 137.096 303.018 138.458L303.073 138.637C303.146 138.419 303.216 138.192 303.289 137.973C302.927 139.572 302.562 141.164 302.203 142.767C301.489 144.863 300.788 147.002 300.111 149.225C301.351 144.29 302.626 139.446 303.896 134.59ZM241.749 538.242C240.571 542.237 239.411 546.29 238.254 550.353C238.298 550.147 238.344 549.946 238.388 549.74C238.418 549.598 238.4 549.446 238.367 549.346C238.846 547.578 239.314 545.78 239.79 544.002C240.42 542.212 241.038 540.38 241.645 538.514C241.684 538.406 241.723 538.298 241.762 538.191C241.757 538.207 241.753 538.224 241.749 538.242Z" fill="#27CEC5"/>
<path d="M411.238 326.833C411.127 326.657 410.998 326.64 410.897 326.891C410.857 326.987 410.822 327.119 410.793 327.299C410.398 329.831 409.987 332.335 409.564 334.82C409.462 335.419 409.356 336.01 409.253 336.606C408.93 338.464 408.602 340.31 408.264 342.141C408.128 342.88 407.99 343.615 407.851 344.349C407.523 346.089 407.187 347.813 406.846 349.525C406.71 350.204 406.576 350.886 406.439 351.561C406.014 353.642 405.581 355.703 405.137 357.742C405.083 357.991 405.032 358.244 404.977 358.493C404.47 360.805 403.95 363.089 403.418 365.344C403.297 365.859 403.172 366.363 403.05 366.872C402.642 368.578 402.228 370.268 401.807 371.939C401.632 372.634 401.454 373.323 401.276 374.013C400.888 375.519 400.495 377.008 400.096 378.484C399.913 379.161 399.731 379.84 399.545 380.511C399.101 382.122 398.648 383.71 398.191 385.284C398.055 385.753 397.921 386.232 397.783 386.7C397.185 388.727 396.578 390.723 395.959 392.683C395.838 393.066 395.713 393.438 395.591 393.82C395.096 395.369 394.596 396.9 394.089 398.407C393.869 399.06 393.646 399.702 393.424 400.348C393.003 401.573 392.578 402.782 392.148 403.976C391.902 404.661 391.654 405.345 391.405 406.021C390.976 407.183 390.541 408.327 390.105 409.46C389.863 410.089 389.623 410.724 389.379 411.342C388.802 412.802 388.219 414.23 387.63 415.636C387.548 415.833 387.468 416.039 387.385 416.234C388.15 412.125 389.08 408.504 390.09 404.98C390.25 404.427 390.045 403.453 389.835 403.892C388.145 407.481 386.97 413.278 386.05 419.271C385.1 421.431 384.14 423.526 383.16 425.54C383.175 419.937 383.155 414.318 383.141 408.715C383.106 391.013 383.051 373.312 382.971 355.61C382.847 328.119 382.638 300.639 382.382 273.168C382.604 271.8 382.832 270.444 383.041 269.054C383.147 268.353 382.823 267.734 382.717 268.44C382.601 269.215 382.479 269.977 382.358 270.741C382.29 263.498 382.22 256.254 382.146 249.012C382.138 248.223 382.13 247.432 382.122 246.643C382.127 246.623 382.131 246.604 382.136 246.583C382.214 246.235 382.185 245.902 382.113 245.678C382.055 239.89 382 234.099 381.941 228.305C382.663 224.979 383.444 220.81 382.709 216.875C382.589 216.234 382.281 216.815 382.398 217.465C382.931 220.409 382.449 223.568 381.918 226.177C381.851 219.774 381.777 213.369 381.681 206.967C381.721 206.725 381.76 206.48 381.8 206.238C382.519 201.895 383.22 197.52 383.898 193.108C383.984 192.549 383.773 192.049 383.648 192.361C383.63 192.405 383.614 192.466 383.601 192.546C383.572 192.721 383.541 192.893 383.512 193.069C383.185 195.027 382.852 196.974 382.518 198.92C382.256 200.435 381.993 201.946 381.729 203.458C381.698 203.635 381.667 203.812 381.635 203.989C381.55 199.005 381.455 194.022 381.335 189.04C381.32 188.405 381.02 188.374 381.025 189.04C381.025 195 381.065 200.96 381.115 206.92C380.248 211.785 379.359 216.607 378.447 221.383C378.442 221.412 378.436 221.442 378.431 221.469C377.984 223.809 377.532 226.14 377.075 228.457C377.054 228.561 377.033 228.665 377.013 228.769C376.56 231.061 376.103 233.341 375.64 235.611C375.627 235.674 375.614 235.738 375.601 235.803C373.736 244.938 371.787 253.888 369.756 262.638C369.704 262.862 369.653 263.089 369.601 263.313C369.239 264.864 368.872 266.402 368.506 267.94C368.302 268.796 368.099 269.655 367.894 270.506C367.572 271.839 367.246 273.163 366.92 274.486C366.663 275.532 366.406 276.578 366.146 277.617C365.842 278.832 365.535 280.04 365.228 281.249C364.94 282.381 364.65 283.509 364.359 284.633C364.064 285.772 363.768 286.905 363.47 288.035C363.159 289.214 362.846 290.387 362.532 291.556C362.242 292.635 361.953 293.711 361.661 294.782C361.332 295.987 361 297.18 360.667 298.374C360.38 299.407 360.093 300.443 359.803 301.468C359.462 302.673 359.117 303.863 358.772 305.058C358.482 306.065 358.193 307.078 357.9 308.077C357.57 309.203 357.235 310.312 356.902 311.428C356.606 312.417 356.313 313.415 356.015 314.396C354.822 318.325 353.608 322.182 352.378 325.987C349.19 335.851 345.877 345.291 342.447 354.259C341.114 357.739 339.767 361.163 338.399 364.497C334.413 374.226 330.274 383.122 326.044 391.591C323.827 396.028 321.587 400.353 319.329 404.605C313.137 416.263 306.903 428.118 301.477 443.412C301.309 443.886 301.146 444.373 300.98 444.854C295.797 459.879 291.84 478.06 289.704 499.696C289.254 504.26 288.867 508.901 288.511 513.577C286.921 534.447 285.957 556.062 282.807 575.154C282.412 577.552 281.975 579.862 281.521 582.13C279.648 591.49 277.346 599.889 275.089 608.291C272.93 616.333 270.844 624.585 268.839 633.04C268.406 634.865 267.973 636.687 267.548 638.534C258.081 679.656 250.616 725.638 245.468 774.185C242.102 799.6 238.922 825.391 234.435 849.01C233.162 855.716 231.807 862.261 230.322 868.495C228.818 874.816 227.191 880.784 225.578 886.807C225.383 887.532 225.673 888.44 225.898 887.848C229.232 879.076 231.9 867.636 234.254 856.07C236.647 844.309 238.661 831.731 240.509 818.988C241.469 812.362 242.379 805.666 243.263 798.936C243.343 799.053 243.439 799.045 243.52 798.889C243.567 798.796 243.609 798.665 243.634 798.465C244.291 793.187 244.974 787.945 245.671 782.722C245.723 783.052 245.902 783.105 245.947 782.644C246.183 780.208 246.424 777.777 246.669 775.347C246.877 773.832 247.088 772.32 247.3 770.81C248.127 764.921 248.979 759.073 249.856 753.261C249.813 753.821 250.076 754.05 250.127 753.492C250.304 751.57 250.495 749.666 250.687 747.761C252.217 737.831 253.818 728.019 255.487 718.33C255.681 717.205 255.875 716.078 256.07 714.951C255.497 720.455 255.006 726.053 254.613 731.728C253.647 745.682 253.298 759.82 253.444 774.1C253.606 789.967 253.976 805.664 253.353 821.487C252.664 839.02 250.998 855.5 248.889 871.722C248.787 872.508 249.119 873.211 249.253 872.414C251.464 859.295 252.868 844.525 253.734 829.88C254.628 814.754 254.78 799.553 254.561 784.201C254.657 784.213 254.753 784.015 254.753 783.592C254.777 768.929 256.382 754.802 259.608 744.396C262.405 735.366 265.968 729.112 268.525 719.245C271.268 708.653 271.814 695.387 272.613 682.266C273.016 675.661 273.519 668.995 274.542 663.08C275.609 656.916 277.22 652.063 279.012 648.141C281.035 643.711 283.257 640.331 285.438 636.815C288.015 632.658 290.628 628.676 293.152 624.189C299.704 619.71 306.114 614.344 311.829 602.333C312.459 601.008 313.075 599.614 313.683 598.187C313.884 597.718 314.079 597.229 314.278 596.75C314.658 595.829 315.036 594.897 315.408 593.94C315.673 593.26 315.936 592.57 316.197 591.871C316.486 591.098 316.772 590.314 317.056 589.521C317.345 588.716 317.635 587.912 317.92 587.087C317.954 586.986 317.99 586.892 318.025 586.791C318.815 584.485 319.565 582.114 320.375 579.889C321.28 577.388 322.19 574.904 323.095 572.403C323.64 570.909 324.185 569.414 324.685 567.774C324.91 567.058 325.11 566.167 325.37 565.58C325.54 565.19 325.74 564.979 325.915 564.606C326.49 563.404 327.02 561.894 327.58 560.595C328.15 559.279 328.725 557.995 329.315 556.762C331.545 552.085 333.9 548.041 336.335 544.614C341.6 537.176 347.135 532.111 352.625 526.75C358.335 521.165 364.27 515.821 369.485 506.208C374.855 496.286 378.73 480.63 381.44 462.815C381.58 461.889 381.715 460.962 381.85 460.036C381.955 460.02 382.055 459.825 382.105 459.372C382.21 458.331 382.3 457.277 382.38 456.22C383.42 448.522 384.29 440.613 385.155 432.688C385.555 428.987 385.985 425.268 386.495 421.694C387.192 420.117 387.878 418.49 388.559 416.84C388.733 416.417 388.906 415.987 389.08 415.56C389.586 414.313 390.087 413.044 390.584 411.757C390.76 411.3 390.937 410.847 391.113 410.384C391.753 408.697 392.387 406.985 393.01 405.233C393.051 405.119 393.09 405.001 393.13 404.887C393.709 403.252 394.279 401.585 394.844 399.897C395.032 399.333 395.218 398.763 395.404 398.193C395.838 396.866 396.268 395.523 396.693 394.165C396.872 393.594 397.052 393.027 397.229 392.449C397.805 390.572 398.375 388.673 398.933 386.739C398.964 386.63 398.995 386.516 399.026 386.406C399.557 384.559 400.077 382.681 400.59 380.784C400.752 380.184 400.911 379.58 401.072 378.976C401.471 377.471 401.865 375.949 402.253 374.413C402.403 373.822 402.553 373.232 402.701 372.636C403.738 368.458 404.732 364.17 405.682 359.785C405.811 359.186 405.938 358.582 406.066 357.979C406.426 356.287 406.779 354.579 407.125 352.857C407.245 352.258 407.367 351.662 407.485 351.06C407.932 348.792 408.371 346.509 408.794 344.195C409.013 342.995 409.217 341.769 409.429 340.556C410.123 336.588 410.791 332.578 411.426 328.507C411.541 327.775 411.413 327.106 411.238 326.833ZM381.89 295.21C382.125 330.467 382.295 365.741 382.39 401.012C382.415 409.683 382.455 418.357 382.43 427.027C381.729 428.433 381.023 429.815 380.308 431.147C376.963 437.372 373.476 442.736 369.88 447.243C367.635 450.057 365.359 452.612 363.093 455.242C361.341 457.274 359.594 459.351 357.87 461.636C355.707 464.507 353.602 467.742 351.583 471.489C350.38 473.717 349.209 476.124 348.074 478.747C346.107 483.292 344.251 488.322 342.486 493.668C342.184 494.584 341.892 495.532 341.595 496.466C341.314 497.35 341.029 498.215 340.752 499.113L340.751 499.116L340.75 499.12C340.406 500.237 340.072 501.384 339.735 502.52C339.503 503.301 339.266 504.066 339.037 504.857C338.906 505.31 338.778 505.78 338.648 506.236C331.115 532.543 324.972 563.238 316.622 586.907C315.82 589.179 315.006 591.408 314.16 593.539C313.6 594.952 313.027 596.316 312.446 597.641C311.232 600.41 309.974 602.971 308.674 605.294C307.762 606.922 306.832 608.442 305.88 609.81C302.23 615.088 298.33 618.255 294.44 621.015C288.895 624.97 283.19 628.288 277.972 635.487C276.033 638.162 274.159 641.354 272.388 645.34C267.35 656.677 263.533 672.475 260.237 689.136C261.538 681.079 263.048 673.391 264.742 666.146C266.424 659.733 268.208 653.588 270.099 647.776C272.469 640.489 274.992 633.723 277.649 627.57C280.303 621.423 283.122 616.204 285.897 610.672C288.571 605.339 291.223 599.45 293.24 591.533C295.437 582.91 296.579 572.377 297.61 561.853C299.982 537.623 302.739 513.87 306.026 490.782C308.957 470.188 312.25 449.843 316.561 431.901C318.649 423.211 320.983 415.102 323.591 408.034C326.351 400.553 329.417 394.318 332.579 388.796C338.796 377.942 345.414 369.809 351.737 359.659C362.993 341.588 374.02 317.35 380.798 282.194C381.132 280.459 381.446 278.688 381.756 276.908C381.802 283.009 381.849 289.111 381.89 295.21ZM288.656 524.688C288.774 523.012 288.894 521.338 289.016 519.667C289.937 507.068 291.019 494.493 292.865 482.951C293.214 480.77 293.591 478.646 293.986 476.556C294.308 474.851 294.64 473.168 294.989 471.523C296.247 465.604 297.678 460.074 299.235 454.939C303.667 440.324 308.964 429.023 314.349 418.456C308.795 431.556 303.213 445.416 299.246 463.88C294.856 484.309 293.425 509.668 291.203 533.081C290.022 545.514 288.824 558.042 287.316 570.106C286.566 576.107 285.676 581.968 284.495 587.207C283.392 592.107 282.054 596.399 280.665 600.435C278.018 608.121 275.253 615.288 272.73 623.429C271.725 626.672 270.753 630.019 269.801 633.423C270.707 629.65 271.625 625.905 272.566 622.222C275.156 612.077 277.975 602.536 280.455 592.097C282.971 581.508 284.827 569.928 286.101 557.218C286.311 555.122 286.504 553.009 286.69 550.891C287.451 542.248 288.039 533.449 288.656 524.688ZM353.24 327.577C356.684 316.792 359.984 305.492 363.119 293.723C363.268 293.166 363.413 292.597 363.56 292.037C364.033 290.247 364.505 288.458 364.97 286.647C365.268 285.487 365.559 284.312 365.853 283.144C366.163 281.916 366.475 280.698 366.781 279.462C367.189 277.814 367.589 276.146 367.991 274.48C368.176 273.71 368.365 272.95 368.549 272.177C369.023 270.189 369.488 268.184 369.953 266.173C370.06 265.707 370.171 265.247 370.278 264.78C370.782 262.582 371.278 260.366 371.771 258.141C371.835 257.852 371.901 257.566 371.965 257.275C372.478 254.946 372.984 252.601 373.484 250.245C373.525 250.052 373.568 249.86 373.609 249.667C374.101 247.344 374.585 245.004 375.065 242.656C375.114 242.417 375.164 242.182 375.213 241.941C375.671 239.686 376.122 237.412 376.569 235.132C376.636 234.791 376.706 234.453 376.772 234.111C377.181 232.016 377.581 229.904 377.979 227.788C378.082 227.244 378.187 226.707 378.289 226.161C378.634 224.311 378.971 222.445 379.309 220.579C379.459 219.749 379.613 218.928 379.761 218.096C380.036 216.553 380.304 214.998 380.574 213.447C380.764 212.355 380.958 211.272 381.145 210.176C381.201 216.398 381.268 222.624 381.335 228.85C380.879 230.914 380.414 232.961 379.949 235C378.743 240.291 377.514 245.524 376.262 250.698C373.93 260.333 371.52 269.767 369.035 278.988C363.996 297.69 358.645 315.504 353.012 332.324C350.041 341.197 347.016 349.957 343.766 357.747C341.684 362.738 339.481 367.074 337.267 371.373C342.64 358.498 347.763 344.52 352.596 329.553C352.81 328.894 353.028 328.242 353.24 327.577ZM381.47 242.105C381.484 243.608 381.495 245.111 381.508 246.614C377.033 266.24 372.575 285.952 367.513 304.05C362.606 321.595 357.14 337.018 351.005 349.881C344.332 363.871 337.169 375.34 330.259 388.095C330.887 386.615 331.505 385.084 332.148 383.668C335.41 376.491 338.925 370.626 342.18 363.412C345.397 356.284 348.367 348.062 351.261 339.622C362.436 307.033 372.586 270.548 381.356 230.931C381.396 234.656 381.437 238.382 381.47 242.105ZM257.1 705.925C255.303 715.922 253.581 726.061 251.936 736.331C251.941 736.282 251.948 736.233 251.953 736.185C254.263 720.573 256.657 705.077 259.357 690.203C258.522 695.314 257.768 700.561 257.1 705.925ZM254.487 713.697C253.931 716.741 253.394 719.82 252.873 722.926C254.111 714.017 255.438 705.244 256.872 696.66C256.996 695.94 257.119 695.221 257.244 694.505C257.512 692.967 257.782 691.432 258.055 689.902C258.266 688.72 258.479 687.541 258.693 686.364C258.996 684.699 259.302 683.043 259.611 681.389C259.805 680.352 259.998 679.314 260.195 678.281C260.549 676.418 260.907 674.565 261.269 672.717C261.349 672.306 261.429 671.894 261.51 671.483C262.305 667.558 263.12 663.671 263.971 659.857C268.128 641.207 272.943 624.327 278.361 609.483C281.139 601.873 283.975 594.247 285.893 584.056C287.875 573.522 289.021 561.372 290.21 549.725C291.496 537.118 292.666 524.387 293.798 511.628C294.898 499.237 295.95 486.655 297.811 475.188C301.206 454.284 306.898 438.642 312.649 424.765C315.275 418.43 317.932 412.216 320.647 406.284C322.618 402.485 324.583 398.664 326.531 394.761C326.759 394.454 326.986 394.146 327.214 393.836C323.723 400.603 320.328 407.852 317.128 416.104C311.788 429.879 307.332 446.487 303.917 465.672C300.311 485.926 297.81 508.037 295.679 530.315C294.59 541.698 293.706 553.324 292.499 564.583C291.249 576.232 289.381 586.319 286.641 594.897C284.134 602.747 281.244 609.129 278.451 615.827C275.739 622.329 273.166 629.342 270.796 637.14C266.018 652.861 262.088 670.76 258.667 689.722C257.13 697.436 255.737 705.449 254.487 713.697ZM381.738 274.522C375.755 309.74 365.454 334.659 354.658 353.218C348.599 363.631 342.225 371.813 336.059 381.495C329.723 391.445 323.782 403.525 318.964 420.382C314.32 436.628 310.755 455.736 307.712 475.482C304.328 497.434 301.429 520.207 298.954 543.395C297.712 555.027 296.808 567.279 295.185 578.436C293.674 588.823 291.292 596.794 288.422 603.351C285.772 609.407 282.898 614.315 280.172 619.986C277.549 625.444 275.04 631.482 272.662 638.017C270.334 644.409 268.14 651.293 266.083 658.583C266.063 658.619 266.043 658.661 266.024 658.73C265.969 658.936 265.916 659.149 265.861 659.356C265.529 660.545 265.206 661.762 264.882 662.972C265.996 658.091 267.161 653.317 268.395 648.69C270.631 640.305 273.06 632.458 275.69 625.379C278.333 618.266 281.199 612.1 283.897 605.219C286.545 598.466 289.05 590.877 290.805 581.447C292.709 571.214 293.661 559.532 294.672 548.143C296.69 525.402 298.882 502.678 302.047 481.304C305.112 460.603 309.138 441.721 314.372 426.184C324.236 396.903 336.777 379.97 348.106 357.802C354.058 346.157 359.578 332.765 364.5 316.793C369.76 299.72 374.357 280.643 378.795 261.308C379.714 257.303 380.623 253.275 381.531 249.245C381.604 257.67 381.674 266.097 381.738 274.522ZM285.809 634.087C283.771 637.234 281.708 640.27 279.767 644.015C277.947 647.527 276.22 651.732 274.904 657.174C273.634 662.429 272.862 668.639 272.343 675.059C271.268 688.338 271.142 702.967 268.612 714.521C266.227 725.413 262.448 731.943 259.527 741.105C256.81 749.631 254.938 761.029 254.444 773.149C254.373 761.881 254.488 750.674 255.055 739.46C255.712 726.46 256.854 713.707 258.434 701.569C261.509 684.673 264.941 668.266 269.416 655.141C270.697 651.384 272.063 648.049 273.499 645.08C275.42 641.112 277.467 637.819 279.63 635.227C283.35 630.777 287.24 628.112 291.12 625.548C291.255 625.459 291.389 625.368 291.524 625.278C289.604 628.106 287.712 631.149 285.809 634.087ZM385.355 424.172C385.27 424.805 385.185 425.423 385.105 426.054C384.325 432.047 383.665 438.202 382.95 444.277C383.03 441.045 383.075 437.814 383.11 434.645C383.13 432.698 383.145 430.749 383.155 428.784C383.162 428.771 383.168 428.757 383.175 428.744C383.878 427.321 384.574 425.863 385.262 424.367C385.293 424.3 385.324 424.239 385.355 424.172Z" fill="#27CEC5"/>
<path d="M392.239 837.351C388.864 837.14 385.484 836.945 382.109 836.781C382.054 827.573 381.874 818.348 381.769 809.173C381.624 796.197 381.474 783.223 381.329 770.262C381.034 744.312 380.714 718.375 380.404 692.44C380.234 677.84 380.059 663.24 379.884 648.657C379.874 647.666 379.494 647.081 379.269 647.828C373.699 666.569 368.079 685.18 362.494 703.889C361.054 708.714 359.614 713.521 358.174 718.342C356.914 722.565 355.674 726.868 354.309 730.75C351.544 738.61 348.259 742.524 344.724 745.22C341.464 747.688 338.209 749.881 335.019 753.193C334.199 754.048 333.385 754.962 332.575 755.912C333.732 752.529 334.86 749.047 335.939 745.402C338.331 737.319 340.446 728.501 342.309 719.068C344.201 709.49 345.864 699.463 347.568 689.528C349.27 679.6 350.995 669.689 353.033 660.437C354.834 652.264 356.892 644.73 359.075 637.62C363.409 623.504 368.176 610.931 372.708 597.51C377.604 583.006 382.43 567.116 385.313 547.468C385.364 547.119 385.212 546.817 385.151 547.161C382.128 564.2 378.129 578.779 373.69 592.044C369.221 605.4 364.435 617.588 360.022 631.148C359.454 632.891 358.925 634.882 358.316 636.47C357.931 637.477 357.52 638.112 357.191 639.353C356.168 643.21 355.291 647.447 354.235 651.242C353.665 653.291 352.896 655.208 352.432 657.517C351.451 662.401 350.393 666.892 349.158 671.277C346.763 679.779 344.097 687.488 341.214 694.2C338.384 700.789 335.353 706.357 332.179 710.994C330.571 713.34 328.888 715.569 327.606 719.63C326.351 723.603 325.678 728.928 324.992 734.053C324.315 739.112 323.532 743.842 322.389 747.966C321.321 751.823 320.061 755.046 318.715 757.815C315.927 763.548 312.831 767.442 309.79 771.489C303.294 780.14 297.185 791.241 291.622 805.189C286.037 819.19 281.073 835.701 276.905 854.19C276.378 856.525 275.922 858.788 275.543 861.414C275.444 862.105 275.704 862.896 275.887 862.274C277.108 858.112 278.072 853.232 279.175 848.729C280.282 844.211 281.439 839.821 282.642 835.568C285.049 827.066 287.642 819.105 290.389 811.771C295.927 796.985 302.127 784.774 308.734 775.726C314.399 767.969 321.116 761.136 324.497 743.063C325.411 738.178 325.933 732.674 326.768 727.661C327.696 722.094 329.061 718.563 330.793 715.825C332.395 713.292 334.03 711.065 335.598 708.303C337.14 705.586 338.638 702.607 340.084 699.385C343.818 691.071 347.216 681.167 350.154 669.991C349.511 673.345 348.891 676.749 348.288 680.183C344.833 699.847 341.828 720.403 337.252 737.704C335.36 744.856 333.285 751.462 331.108 757.695C329.514 759.689 327.939 761.845 326.389 764.186C320.699 772.81 315.364 783.853 310.524 796.845C306.204 808.44 302.194 821.692 298.854 836.422C296.354 836.568 293.859 836.747 291.364 837.023C291.074 837.054 291.074 838.483 291.364 838.483C293.704 838.531 296.044 838.517 298.379 838.517C297.714 841.537 297.064 844.607 296.454 847.774C296.269 848.732 296.719 849.528 296.914 848.633C297.674 845.208 298.459 841.844 299.259 838.517C309.779 838.468 320.299 838.03 330.819 838.03C343.884 838.03 356.954 838.306 370.019 838.858C373.764 839.004 377.514 839.183 381.259 839.394C381.319 842.301 381.389 845.191 381.479 848.082C381.519 849.349 382.089 849.414 382.104 848.082C382.129 845.208 382.129 842.317 382.124 839.444C385.494 839.621 388.869 839.816 392.239 840.027C392.774 840.079 392.774 837.383 392.239 837.351Z" fill="#27CEC5"/>
<path d="M308.598 774.92C306.708 776.523 304.895 779.259 303.083 781.617C301.258 783.991 299.438 786.398 297.621 788.839C294.369 793.209 291.13 797.696 287.922 802.401C281.976 811.122 276.104 820.829 270.88 833.631C268.063 840.534 265.189 848.401 263.086 857.684C262.885 858.57 263.325 859.641 263.553 858.851C264.674 854.967 265.733 850.947 266.919 847.258C268.048 843.747 269.232 840.427 270.46 837.288C273.019 830.745 275.767 824.999 278.598 819.786C284.409 809.082 290.577 800.618 296.711 792.1C298.724 789.304 300.742 786.551 302.765 783.837C304.738 781.193 306.815 778.949 308.694 775.662C308.82 775.441 308.733 774.806 308.598 774.92Z" fill="#27CEC5"/>
<path d="M31.2954 856.85C33.9954 845.912 36.4714 834.301 38.9869 822.908C41.5474 811.313 44.1079 799.718 46.6684 788.121C49.1544 776.862 51.6689 765.662 54.1184 754.317C56.3624 743.922 58.4669 733.061 59.6539 720.874C60.8584 708.511 61.1704 695.449 61.2799 682.554C61.3974 668.716 61.3999 654.868 61.5159 641.029C61.7534 612.75 62.1969 584.487 62.8264 556.274C63.1409 542.163 63.5014 528.063 63.9239 513.981C64.2519 503.045 64.6854 491.306 66.5469 481.839C67.0014 479.528 67.5374 477.339 68.1204 475.358C68.2964 474.762 68.0334 473.934 67.8444 474.461C65.3524 481.425 64.3589 492.4 63.8354 502.581C63.1834 515.261 62.9494 528.239 62.6144 541.037C61.8724 569.363 61.3459 597.742 61.0354 626.154C60.8799 640.358 60.7764 654.568 60.7239 668.779C60.6749 682.044 60.6724 695.426 59.9414 708.525C59.2119 721.595 57.5969 733.389 55.3994 744.533C53.1414 755.98 50.6014 766.871 48.1709 777.932C43.0694 801.155 37.9534 824.341 32.9244 847.728C32.3079 850.598 31.7014 853.466 31.1239 856.42C31.0584 856.754 31.2169 857.17 31.2954 856.85Z" fill="#27CEC5"/>
<path d="M65.4954 491.031C65.5004 491.193 65.4904 491.356 65.4604 491.534C65.4004 491.924 65.3404 492.314 65.2854 492.704C65.2604 492.866 65.2404 493.045 65.2204 493.223C65.1404 493.824 65.0704 494.441 65.0104 495.075C65.0054 495.107 65.0054 495.14 65.0004 495.188C64.9404 495.838 64.8854 496.504 64.8404 497.17C64.7354 498.696 64.6704 500.255 64.6304 501.847C64.5404 505.16 64.5504 508.521 64.5204 511.753C64.4454 519.289 64.3804 526.808 64.3304 534.343C64.2304 549.138 64.1804 563.932 64.1754 578.743C64.1704 605.101 64.3204 631.458 64.6204 657.816C64.7654 670.905 65.0604 684.027 65.1154 697.117C65.1604 708.907 64.5804 720.259 63.2404 731.221C60.5804 752.998 55.8804 771.609 51.6704 790.367C46.8204 811.933 41.9454 833.451 37.0204 854.839C36.9254 855.245 36.7104 854.856 36.8054 854.417C42.1254 830.025 47.5204 805.778 52.9354 781.581C57.0904 763.018 61.6654 744.099 63.5954 721.623C64.6454 709.378 64.5204 697.003 64.3254 684.433C64.1204 671.262 63.9504 658.092 63.8254 644.905C63.5804 618.547 63.4804 592.19 63.5354 565.816C63.5654 552.646 63.6304 539.459 63.7304 526.272C63.7504 523.608 63.7754 520.929 63.8004 518.265C63.8304 514.823 63.8654 511.363 63.9004 507.921C63.9054 507.32 63.9154 506.703 63.9204 506.102V505.955C63.9204 505.663 63.9254 505.387 63.9354 505.095C63.9954 500.06 64.1304 494.994 64.9454 490.56C65.0354 490.089 65.1804 490.008 65.3004 490.17C65.4054 490.316 65.4904 490.641 65.4954 491.031Z" fill="#27CEC5"/>
<path d="M241.935 -40.6005C242.085 -41.2826 241.75 -42.0946 241.575 -41.4937C239.06 -32.6592 236.385 -24.4417 233.525 -16.9389C232.74 -16.8901 231.96 -16.8577 231.175 -16.8089C228.025 -16.6303 224.875 -16.4029 221.725 -16.2081C215.51 -15.8021 209.29 -15.3961 203.075 -15.0063C202.48 -14.9576 201.89 -14.9089 201.295 -14.8601C203.47 -23.8571 205.745 -32.578 207.92 -41.5749C208.525 -44.1084 209.145 -46.6093 209.76 -49.0941C209.885 -49.5975 209.685 -50.2958 209.54 -49.8086C206.175 -38.8629 203.075 -27.0401 200.155 -14.7789C197.565 -14.5678 194.97 -14.3242 192.38 -14.0806C192.16 -14.0481 192.155 -12.9601 192.38 -12.9601C194.84 -12.9925 197.305 -13.0737 199.77 -13.1549C198.04 -5.84694 196.37 1.60722 194.745 9.12634C190.23 30.011 186.1 51.7726 182.39 74.265C178.69 96.6762 175.495 119.769 172.585 143.35C171.865 149.18 171.045 155.043 169.72 159.72C168.4 164.381 166.735 167.742 165.11 171.169C161.975 177.795 158.96 185.07 156.125 192.996C150.45 208.862 145.32 227.181 141.215 247.546C141.02 248.488 140.84 249.462 140.655 250.42C136.67 264.419 132.72 278.499 128.79 292.66C124.875 306.773 120.97 321.389 115.77 330.613C115.16 331.701 114.54 332.708 113.915 333.666C113.91 333.675 113.904 333.683 113.898 333.691C113.487 334.085 113.077 334.498 112.671 334.975C111.099 336.824 109.568 339.022 108.083 341.517C108.072 341.53 108.061 341.544 108.05 341.557C105.22 345.098 102.395 348.654 99.7696 353.656C95.0646 362.604 91.1046 375.077 88.0946 389.823C86.5996 397.163 85.2696 404.91 83.5246 411.682C82.1846 416.895 80.6196 420.955 78.8496 424.138C78.8436 424.149 78.8376 424.157 78.8316 424.169C78.7786 424.242 78.7256 424.31 78.6726 424.385C77.3761 426.187 76.0851 428.031 74.7996 429.914C74.7981 429.916 74.7966 429.919 74.7946 429.921C72.4396 432.747 70.0446 435.231 67.6896 438.073C64.6896 441.695 61.7146 445.511 58.7446 449.36C52.7646 457.09 46.8496 465.308 40.9396 473.59C35.5146 481.174 29.8846 488.401 25.1396 500.078C20.2246 512.16 16.4196 528.66 12.4396 543.78C8.1196 560.182 3.7546 576.471 -0.485396 593.084C-1.2404 596.024 -1.9804 598.996 -2.7204 601.951C-2.7404 595.91 -2.7654 589.885 -2.8004 583.844C-2.8004 583.356 -3.0304 583.356 -3.0354 583.844C-3.0804 590.437 -3.1104 597.014 -3.1404 603.608C-3.2954 604.225 -3.4504 604.842 -3.6054 605.443C-3.8654 606.482 -3.4554 607.928 -3.1604 607.067C-3.1904 613.677 -3.2104 620.302 -3.2304 626.912C-3.2304 626.917 -3.2304 626.922 -3.2304 626.927C-4.2839 631.139 -5.3399 635.346 -6.3899 639.568C-7.3059 643.254 -8.2219 646.938 -9.1379 650.622C-9.2314 650.998 -9.0699 651.538 -8.9719 651.162C-7.0549 643.738 -5.1434 636.299 -3.2354 628.851C-3.2554 635.492 -3.2704 642.131 -3.2804 648.755C-3.3684 649.151 -3.4589 649.541 -3.5469 649.939C-4.3659 653.637 -5.1749 657.352 -5.9684 661.11C-6.0144 661.33 -5.9079 661.518 -5.8604 661.315C-5.0044 657.643 -4.1464 653.979 -3.2854 650.322C-3.3004 661.216 -3.3104 672.111 -3.3254 683.007C-3.3254 683.021 -3.3254 683.039 -3.3254 683.054C-3.9134 685.795 -4.5089 688.52 -5.0939 691.268C-6.0604 695.809 -7.0254 700.348 -7.9674 704.944C-8.0184 705.192 -7.8994 705.402 -7.8459 705.174C-6.3134 698.613 -4.8144 691.97 -3.3254 685.301C-3.3254 685.311 -3.3254 685.321 -3.3254 685.331C-3.3254 688.741 -3.3304 692.168 -3.3354 695.594C-3.3854 732.849 -3.4054 770.087 -3.4354 807.342C-3.4504 828.389 -3.4704 849.452 -3.4854 870.499C-3.4904 871.116 -3.3304 871.587 -3.1454 871.62C4.4496 872.626 12.0446 873.633 19.6346 874.624C18.9846 877.45 18.3296 880.276 17.6746 883.101C16.4896 888.217 15.3046 893.333 14.1446 898.497C13.8746 899.699 14.4996 901.274 14.7796 900.105C16.7846 891.692 18.7696 883.247 20.7446 874.77L25.4396 875.404C28.1696 875.761 30.9046 876.118 33.6396 876.492C34.0846 876.54 34.0796 874.315 33.6396 874.25C29.5096 873.698 25.3796 873.162 21.2496 872.61C28.6496 840.877 35.9046 808.771 43.3046 777.054C45.6846 766.839 48.0646 756.624 50.4496 746.409C52.5946 737.185 54.9946 728.074 56.4296 717.405C57.8596 706.751 58.0296 694.977 58.3646 683.56C58.7396 670.812 59.1146 658.064 59.4896 645.299C60.2396 619.607 60.9946 593.916 61.7446 568.224C62.1046 555.963 62.4446 543.669 62.8296 531.408C62.8596 530.433 62.8896 529.475 62.9246 528.501C63.1596 521.599 63.4496 514.697 63.8996 507.925C63.9496 507.227 63.9996 506.528 64.0496 505.83C64.1296 505.391 64.1996 504.937 64.2646 504.466C64.3946 503.605 64.5046 502.728 64.6296 501.851C64.7046 501.283 64.7796 500.731 64.8696 500.195C65.1996 498.165 65.5796 496.2 66.0046 494.381C66.8846 490.564 67.9996 487.268 69.2696 484.815C71.9746 479.586 75.2296 478.238 78.1646 474.795C83.3846 468.657 88.1596 458.848 92.0496 446.148C93.1346 442.608 94.1496 438.856 95.0896 434.942C95.8146 431.905 96.5296 428.804 97.1046 425.458C100.5 416.234 103.33 404.801 105.935 393.157C110.4 373.23 114.715 352.898 119.03 332.63C119.965 328.229 120.885 323.812 121.78 319.33C123.37 314.783 124.855 309.846 126.29 304.795C130.7 289.27 134.965 273.273 139.21 257.277C139.37 256.66 139.535 256.059 139.695 255.442L139.795 255.507C139.96 254.711 140.135 253.948 140.3 253.168C141.01 250.472 141.725 247.793 142.435 245.097C142.52 244.788 142.38 244.317 142.29 244.642C142.095 245.324 141.9 246.022 141.705 246.705C145.52 229.685 149.85 213.9 154.7 199.933C157.56 191.7 160.58 184.051 163.75 177.116C165.295 173.738 166.92 170.685 168.415 167.047C169.895 163.41 171.125 159.122 172.04 153.844C172.965 148.485 173.615 142.655 174.32 136.971C174.905 132.261 175.515 127.584 176.135 122.923C177.03 117.873 177.98 112.968 179.065 108.275C180.725 101.113 182.585 94.4545 184.55 88.1534C188.6 75.1452 193.16 63.8746 197.945 53.8383C207.485 33.8306 218.105 20.1078 227.665 0.148865C229.87 -4.44706 232.055 -9.36777 234.13 -14.7432C234.47 -14.7595 234.815 -14.7757 235.155 -14.7919C236.065 -14.8407 236.98 -14.8894 237.89 -14.9543C238.73 -14.9868 239.64 -14.6133 240.42 -15.6851C240.57 -15.8963 240.58 -16.5134 240.42 -16.7083C239.755 -17.5365 239.09 -17.2442 238.39 -17.2117C237.56 -17.163 236.73 -17.1143 235.9 -17.0655C235.6 -17.0493 235.295 -17.0331 234.99 -17.0168C237.58 -24.0033 239.965 -31.766 241.935 -40.6005ZM114.069 336.479C108.839 351.816 105.141 372.935 100.278 389.316C98.6226 394.891 96.8281 400.069 94.8121 404.231C92.1946 409.636 89.2666 413.064 86.3626 416.451C85.0661 417.963 83.7756 419.531 82.4926 421.15C82.5286 421.075 82.5636 420.995 82.5991 420.921C82.9951 420.416 83.3921 419.924 83.7931 419.466C85.1176 417.949 86.3491 416.325 87.5141 413.728C89.6261 409.018 91.5251 403.174 93.3811 397.46C95.1941 391.88 96.9511 386.112 98.7041 380.334C102.184 368.862 105.656 357.284 109.52 347.152C110.976 343.336 112.49 339.743 114.069 336.479ZM112.455 338.084C112.463 338.076 112.47 338.063 112.478 338.053C110.887 341.598 109.36 345.44 107.89 349.491C104.248 359.524 100.93 370.705 97.5726 381.716C95.8631 387.322 94.1426 392.895 92.3631 398.268C90.4706 403.981 88.5196 410.079 86.2676 414.274C85.6621 415.402 85.0166 416.245 84.3616 417.017C84.5161 416.671 84.6696 416.323 84.8266 415.984C85.8646 413.741 86.8276 411.359 87.7361 408.572C89.6561 402.68 91.2861 395.877 92.8721 389.042C94.5161 381.958 96.1221 374.752 97.9781 368.227C99.6611 362.309 101.527 356.947 103.535 352.219C104.591 349.734 105.686 347.436 106.811 345.307C108.696 342.91 110.591 340.658 112.455 338.084ZM81.9201 419.982C83.6351 415.207 84.9951 409.247 86.2301 403.141C87.7601 395.59 89.1551 387.778 90.9351 380.795C92.7351 373.731 94.8001 367.364 97.0801 361.924C99.3351 356.532 101.785 352.164 104.355 348.575C104.39 348.526 104.42 348.477 104.455 348.429C104.467 348.412 104.48 348.396 104.492 348.38C101.015 355.917 97.9801 365.268 95.3726 375.946C93.6431 383.028 92.0486 390.451 90.2731 397.417C89.4236 400.749 88.5336 403.981 87.5721 406.977C86.5876 410.046 85.5271 412.573 84.4021 415.056C83.7826 416.424 83.1801 417.807 82.5636 419.129C82.5046 419.204 82.4451 419.276 82.3866 419.352C82.2296 419.558 82.0751 419.779 81.9181 419.987C81.9191 419.985 81.9201 419.982 81.9201 419.982ZM71.8541 436.196C71.5006 436.753 71.1466 437.304 70.7946 437.872C70.1326 438.941 69.4736 440.029 68.8166 441.131C68.5231 441.528 68.2296 441.922 67.9361 442.32C69.1941 440.306 70.4561 438.328 71.7231 436.391C71.7666 436.324 71.8106 436.263 71.8541 436.196ZM10.0351 558.461C12.1801 550.422 14.3251 542.415 16.4701 534.377C18.5001 526.776 20.4751 518.981 22.6951 511.965C26.9901 498.405 32.3251 489.554 37.7251 481.564C43.5701 472.908 49.4401 464.398 55.3501 456.214C59.9251 449.864 64.5451 443.904 69.2201 438.382C69.2561 438.34 69.2921 438.301 69.3276 438.259C66.7726 442.275 64.2391 446.45 61.7301 450.783C59.2976 454.14 56.8701 457.535 54.4531 461.011C49.5231 468.1 44.5991 475.357 39.8381 483.596C35.3416 491.376 30.9906 500.2 27.1121 510.978C22.9126 522.651 19.4856 536.848 15.9956 550.678C9.7721 575.34 3.5241 599.944 -2.6699 624.684C-2.6799 618.285 -2.6899 611.887 -2.7099 605.49C1.6101 590.015 5.8151 574.23 10.0351 558.461ZM-2.6699 626.639C2.7371 605.519 8.1166 584.326 13.5046 563.157C17.1131 548.98 20.5701 534.128 24.5546 521.029C28.2091 509.013 32.4681 499.18 36.9536 490.709C41.5021 482.121 46.2726 474.826 51.0566 467.744C53.0571 464.782 55.0676 461.894 57.0826 459.036C51.8736 468.566 46.7831 478.781 41.8586 489.743C39.5836 494.808 37.3591 500.133 35.2726 505.997C33.1251 512.032 31.1176 518.567 29.1266 525.138C25.1586 538.229 21.2871 551.628 17.5156 565.319C10.4071 591.122 3.6171 617.995 -2.6594 645.999V645.976C-2.6599 639.532 -2.6599 633.085 -2.6699 626.639ZM-2.6599 647.683V647.678C3.4311 621.876 9.6676 596.512 16.3056 572.122C20.1806 557.882 24.1631 543.953 28.2496 530.352C30.2816 523.588 32.3211 516.823 34.4761 510.468C36.6956 503.923 39.0731 498.009 41.5351 492.461C48.1346 477.593 55.0576 464.129 62.1716 451.911C62.9431 450.846 63.7146 449.786 64.4871 448.728C56.6931 462.964 49.3186 479.607 42.4926 498.377C33.4831 523.155 25.6646 551.58 18.6821 582.439C14.6521 600.249 10.7531 618.376 6.8076 636.383C3.6306 650.882 0.467104 665.417 -2.6699 680.01C-2.6699 679.991 -2.6699 679.971 -2.6699 679.952C-2.6649 669.201 -2.6649 658.434 -2.6599 647.683ZM64.8401 497.171C64.8001 497.382 64.7651 497.593 64.7301 497.804C64.8151 496.927 64.9051 496.05 65.0001 495.19C64.9401 495.839 64.8851 496.505 64.8401 497.171ZM65.4601 491.536C65.4001 491.925 65.3401 492.315 65.2851 492.705C65.3501 492.153 65.4201 491.584 65.4951 491.032C65.5001 491.194 65.4901 491.357 65.4601 491.536ZM119.67 326.602C115.785 343.264 112.135 360.56 108.385 377.514C104.46 395.265 100.515 413.762 95.0101 426.787C85.6451 448.954 71.3701 447.087 65.4351 483.805C62.4601 502.173 62.0551 523.609 61.4601 543.877C60.7101 569.39 59.9601 594.887 59.2101 620.384C58.4601 645.832 57.8601 671.377 56.9501 696.76C56.7351 702.688 56.4151 708.664 55.7551 714.251C55.0901 719.87 54.1051 725.034 53.0451 729.939C50.8651 740.105 48.5001 749.881 46.2151 759.804C37.5601 797.448 28.8401 834.93 20.1401 872.461C15.1101 871.795 10.0851 871.129 5.0551 870.463C2.4351 870.122 -0.179896 869.781 -2.7999 869.424C-2.7749 832.543 -2.7449 795.646 -2.7199 758.748C-2.6999 733.3 -2.6849 707.852 -2.6749 682.404C-2.6749 682.399 -2.6749 682.393 -2.6749 682.388C-0.336396 671.874 1.9731 661.291 4.29661 650.746C8.2751 632.692 12.2151 614.549 16.1926 596.491C19.9191 579.573 23.7366 562.852 27.9531 547.177C31.6701 533.357 35.6481 520.279 39.8536 508.027C48.2751 483.497 57.6106 462.255 67.5846 444.92C67.9676 444.254 68.3526 443.606 68.7376 442.954C69.5686 441.83 70.3996 440.703 71.2316 439.587C72.3871 438.038 73.7246 436.825 74.7636 434.525C75.9611 431.875 77.2681 429.806 78.5831 427.78C80.0851 425.697 81.5966 423.691 83.1206 421.783C85.8891 418.317 88.7266 415.386 91.4396 411.464C93.7836 408.077 95.9441 403.744 97.8951 398.333C104.428 380.214 108.186 353.609 114.636 335.36C114.942 334.75 115.246 334.123 115.557 333.54C115.579 333.499 115.602 333.463 115.623 333.423C116.096 332.984 116.558 332.484 116.993 331.817C117.438 331.133 117.803 330.009 118.213 329.14C118.311 328.934 118.414 328.759 118.513 328.564C118.632 328.384 118.748 328.182 118.868 328.007C118.999 327.814 119.364 327.281 119.672 326.596C119.672 326.596 119.671 326.599 119.67 326.602ZM120.152 324.548C120.146 324.343 120.116 324.14 120.064 323.942L120.065 323.94C120.07 323.94 120.07 323.94 120.075 323.924C120.28 323.404 120.475 322.852 120.675 322.316C120.501 323.058 120.327 323.804 120.152 324.548Z" fill="#27CEC5"/>
<path d="M-8.27621 525.243C-0.39671 492.534 9.81479 466.144 21.3148 448.049C27.2673 438.682 33.4803 432.253 39.8993 427.267C43.2158 424.69 46.5603 421.961 49.6248 416.972C52.5788 412.162 55.1158 405.151 57.3658 397.363C59.6758 389.368 61.7198 380.603 63.7958 371.971C65.8743 363.332 67.9483 354.682 70.0528 346.107C74.2513 329.005 78.6088 312.254 83.3318 296.645C88.0583 281.027 93.1703 266.548 98.8168 254.52C104.972 241.41 111.727 231.862 118.297 221.228C124.498 211.189 130.418 199.683 135.907 185.91C141.19 172.651 145.974 157.503 150.274 140.923C150.745 139.109 151.208 137.272 151.665 135.424C150.829 143.91 150.577 152.9 150.326 161.748C150.029 172.182 149.554 182.472 148.725 192.61C146.877 215.19 143.553 236.486 139.093 254.811C139.056 254.962 139.121 255.18 139.159 255.027C143.122 239.565 146.157 221.858 148.16 202.824C149.167 193.26 149.909 183.401 150.365 173.402C150.859 162.594 150.921 151.549 151.69 140.883C151.935 137.48 152.282 134.262 152.698 131.158C152.862 130.474 153.029 129.8 153.191 129.113C153.239 128.909 153.13 128.633 153.081 128.837C153.037 129.018 152.991 129.191 152.947 129.372C153.722 124.038 154.709 119.054 155.81 114.184C157.573 106.389 159.5 98.8454 160.773 90.0303C162.411 78.6834 162.812 66.453 163.041 54.1301C164.548 31.7628 170.027 14.8894 175.083 0.0655403C176.004 -2.63517 176.926 -5.32939 177.848 -8.02522C178.81 -10.8412 179.851 -13.5306 180.739 -16.5935C181.016 -17.55 180.61 -18.7534 180.308 -17.9933C179.379 -15.658 178.54 -12.8534 177.673 -10.2793C176.83 -7.77675 175.987 -5.27579 175.145 -2.77483C173.727 1.43295 172.315 5.66347 170.96 10.0889C168.335 18.6652 165.875 28.1331 164.272 39.1406C163.783 42.4925 163.401 45.963 163.122 49.5245C163.226 43.1925 163.32 36.8638 163.548 30.6422C163.984 18.7448 165.012 7.57979 166.931 -2.70825C168.808 -12.7722 171.237 -21.3404 173.505 -30.4397C173.747 -31.4076 173.351 -32.7815 173.074 -31.8396C168.82 -17.3389 164.851 -0.561321 163.584 19.4464C162.305 39.6652 163.201 60.8957 161.364 80.8011C160.476 90.4282 158.815 98.6196 156.979 106.593C155.213 114.262 153.346 121.853 152.189 130.741C152.057 131.757 151.941 132.789 151.829 133.823C143.602 166.12 133.365 193.248 121.983 212.954C115.445 224.273 108.588 233.587 102.178 245.7C96.3993 256.619 91.1098 270.07 86.2733 285.027C76.4803 315.312 68.6243 351.035 60.1233 384.976C57.9598 393.614 55.6503 402.045 52.8938 408.742C50.0418 415.673 46.7803 419.884 43.3633 422.895C40.0758 425.792 36.7288 427.887 33.4578 430.991C30.4293 433.862 27.4543 437.318 24.5483 441.31C12.9088 457.3 2.43179 482.145 -5.77921 513.36C-6.73721 517.003 -7.66221 520.736 -8.55921 524.54C-8.68121 525.056 -8.40171 525.764 -8.27621 525.243Z" fill="#27CEC5"/>
<path d="M333.193 -92.2836C326.171 -78.387 319.304 -63.6102 312.377 -49.2216C305.895 -35.7586 299.229 -22.8982 293.032 -8.06292C290.178 -1.22913 287.439 6.16982 285.001 14.5529C282.803 22.1126 280.891 30.4876 279.158 39.2166C275.698 56.6519 272.928 75.4139 269.497 92.9077C266.006 110.703 261.779 126.25 256.161 137.165C250.552 148.06 244.251 154.386 238.006 160.188C231.722 166.027 225.383 171.426 219.383 179.978C213.285 188.672 207.591 200.118 202.311 213.259C191.609 239.901 182.587 272.813 173.895 306.082C173.834 306.314 173.776 306.551 173.715 306.784C180.518 277.131 187.571 248.018 195.706 222.061C204.075 195.359 213.578 171.992 224.257 155.922C226.96 151.856 229.732 148.278 232.562 145.256C235.608 142.003 238.719 139.448 241.791 136.48C247.35 131.106 252.574 123.535 257.283 112.435C261.886 101.583 265.902 88.1217 269.022 72.6613C270.7 64.3431 272.065 55.5297 273.438 46.661C274.852 37.5228 276.441 28.6736 278.189 20.1687C285.058 -13.2402 294.382 -41.074 305.136 -60.8754C306.465 -63.3244 307.818 -65.6321 309.19 -67.8213C309.372 -68.1103 309.213 -68.971 309.033 -68.6982C297.901 -51.8362 288.176 -26.0536 280.69 5.53809C278.811 13.4681 277.074 21.7521 275.497 30.3495C273.874 39.1939 272.55 48.4994 271.053 57.5581C268.229 74.6474 264.61 89.939 260.082 102.635C255.679 114.983 250.585 124.568 245.104 130.882C242.065 134.381 238.943 137.032 235.851 139.97C232.897 142.776 229.988 145.987 227.147 149.834C216.484 164.278 206.884 186.103 198.428 211.505C189.302 238.922 181.311 270.51 174.115 303.368C173.925 304.236 173.739 305.109 173.55 305.978C173.783 304.645 174.017 303.315 174.254 301.991C180.184 273.509 186.867 246.778 194.467 222.75C203.477 194.262 213.603 169.635 224.479 149.161C227.1 144.226 229.753 139.383 232.483 135.101C234.743 131.554 237.063 128.431 239.387 125.355C243.995 119.259 248.628 113.206 252.871 104.661C257.799 94.7347 261.988 81.6355 265.347 66.3033C269.735 46.2696 272.811 23.5401 276.503 2.16666C282.806 -34.3214 292.144 -65.0962 303.236 -86.3414C304.61 -88.9722 305.994 -91.5349 307.407 -93.9352C307.533 -94.1479 307.422 -94.7472 307.297 -94.5491C295.885 -76.4853 286.085 -47.6349 279.011 -13.5114C274.888 6.3777 271.825 28.3894 268.12 49.0921C264.85 67.3654 260.876 84.0049 255.621 96.6932C251.435 106.803 246.706 113.914 241.904 120.326C237.124 126.71 232.408 133.074 227.866 141.136C216.819 160.744 206.433 184.418 197.199 212.251C190.085 233.689 183.566 257.531 177.874 283.177C181.965 263.225 186.631 244.502 191.726 227.188C199.345 201.3 207.886 178.328 216.88 157.661C221.378 147.326 225.997 137.553 230.703 128.244C235.382 118.987 240.179 110.369 244.845 101.041C249.363 92.0064 253.782 82.2477 257.697 70.563C261.832 58.2223 265.102 43.9051 267.577 27.5417C268.935 18.5593 270.138 9.33499 271.549 0.435471C272.825 -7.61307 274.273 -15.3677 275.889 -22.7439C279.184 -37.7805 283.137 -51.3052 287.589 -62.7771C288.704 -65.65 289.837 -68.4465 291.001 -71.105C291.221 -71.6068 291.016 -72.7826 290.788 -72.2873C286.144 -62.1908 281.991 -49.7981 278.417 -35.8544C274.736 -21.4902 271.818 -5.59443 269.366 11.2724C268.036 20.4204 266.75 29.6496 265.16 38.3656C263.75 46.0926 262.074 53.2674 260.203 59.8739C256.52 72.8772 252.148 83.5875 247.606 93.2081C243.025 102.915 238.243 111.554 233.537 120.592C228.771 129.746 224.085 139.349 219.513 149.498C210.419 169.687 201.755 192.05 193.968 217.399C190.038 230.189 186.317 243.738 182.912 258.064C185.851 244.178 188.934 230.623 192.242 217.608C196.25 201.839 200.572 186.88 205.28 173.289C210.081 159.432 215.302 147.271 220.642 135.711C226.098 123.9 231.67 112.652 237.06 100.514C239.685 94.6015 242.266 88.4725 244.763 81.9977C247.421 75.1021 249.911 67.622 252.422 60.1776C253.672 56.4732 254.936 52.8972 256.032 48.6878C257.098 44.5937 258.042 40.1813 258.897 35.5999C260.704 25.9193 262.118 15.5452 263.604 5.32697C266.133 -12.0515 269.122 -28.5822 272.689 -43.9355C279.689 -74.059 288.633 -99.447 298.795 -117.763C300.052 -120.028 301.277 -122.41 302.562 -124.517C302.897 -125.066 302.603 -126.641 302.27 -126.137C299.587 -122.084 296.994 -117.72 294.478 -112.647C292.068 -107.785 289.737 -102.516 287.491 -96.8844C282.888 -85.3393 278.644 -72.2759 274.872 -57.8937C271.121 -43.5912 267.814 -28.0446 265.055 -11.5285C261.847 7.67365 259.679 29.3703 255.269 46.2095C254.169 50.4092 252.903 53.9755 251.65 57.6717C250.331 61.5629 249.028 65.5108 247.691 69.3402C245.183 76.5264 242.559 83.2708 239.863 89.6921C234.608 102.205 229.104 113.55 223.656 125.136C218.234 136.668 212.82 148.424 207.826 161.879C203.016 174.837 198.597 189.279 194.511 204.626C186.252 235.648 179.237 270.25 172.972 305.798C172.26 309.843 171.555 313.903 170.854 317.97C170.789 318.23 170.721 318.48 170.657 318.74C170.612 318.92 170.601 319.121 170.611 319.308C170.605 319.337 170.6 319.366 170.594 319.396C170.559 319.59 170.621 319.764 170.673 319.724C170.677 319.738 170.682 319.746 170.687 319.758C166.897 335.533 163.394 352.043 160.09 368.926C158.252 378.318 156.417 387.834 155.039 398.049C153.726 407.775 152.88 418.088 152.412 428.587C152.051 436.687 151.9 444.776 151.89 452.856C151.494 462.556 150.917 472.185 150.106 481.583C148.781 496.948 146.735 512.142 143.094 523.217C139.003 535.66 133.717 543.288 129.131 553.555C124.547 563.814 120.282 575.757 116.872 590.118C113.895 602.655 111.586 616.653 109.138 630.291C107.947 636.925 106.712 643.593 105.344 649.932C105.286 649.833 105.206 649.849 105.162 650.06C104.885 651.396 104.628 652.783 104.382 654.203C103.187 659.339 101.887 664.2 100.418 668.538C99.4756 671.318 98.4746 673.884 97.4141 676.172C96.2316 678.724 94.9731 680.882 93.7976 683.47C91.4831 688.567 89.8946 695.763 88.3096 703.096C84.5646 720.428 80.8686 737.873 77.1521 755.268C69.6681 790.294 62.1001 825.147 54.7011 860.363C53.7896 864.701 52.8836 869.048 51.9976 873.443C51.8576 874.138 52.1891 874.727 52.3351 874.084C56.2481 856.787 59.9386 838.941 63.7061 821.307C67.4741 803.672 71.2421 786.037 75.0096 768.402C78.7516 750.888 82.4941 733.373 86.2366 715.858C88.0106 707.556 89.6426 698.486 91.7646 691.055C93.7081 684.248 96.3361 680.541 98.5886 675.021C100.042 671.461 101.348 667.492 102.55 663.235C102.499 663.716 102.449 664.197 102.398 664.679C101.069 670.415 99.6261 675.852 97.9651 680.682C96.3746 685.307 94.7316 689.703 93.2476 694.702C91.8301 699.475 90.5196 704.57 89.2796 709.835C86.7126 720.728 84.4556 732.348 82.1681 743.869C79.6561 756.52 77.1476 769.18 74.6761 781.914C71.9011 796.213 69.1836 810.623 66.5601 825.221C66.4331 825.928 66.7691 826.563 66.8971 825.863C71.6066 800.083 76.5736 774.807 81.5746 749.619C83.8926 737.944 86.1636 726.133 88.6891 714.911C89.9576 709.274 91.2981 703.803 92.7491 698.648C94.2036 693.482 95.7896 688.833 97.4111 684.235C99.0761 679.513 100.599 674.487 101.96 668.851C101.95 668.95 101.94 669.049 101.929 669.147C101.915 669.186 101.898 669.213 101.89 669.278C100.591 679.337 97.8306 685.911 95.7556 694.143C93.4616 703.246 91.5936 713.536 89.6341 723.401C85.3506 744.97 81.0716 766.549 76.8101 788.165C74.3886 800.447 71.9971 812.79 69.6351 825.195C69.5821 825.476 69.7146 825.72 69.7701 825.45C74.2206 803.903 78.5716 782.138 82.8946 760.321C85.0556 749.416 87.2171 738.511 89.3776 727.606C91.4591 717.104 93.3976 706.091 95.7611 696.222C97.0561 690.814 98.7541 686.04 100.123 680.617C99.8811 682.038 99.6401 683.461 99.3981 684.88C97.3971 696.618 95.3376 708.254 93.3221 719.965C89.4356 742.547 85.5321 765.072 80.9861 786.346C78.4986 797.984 75.8386 809.244 73.8091 821.832C73.7531 822.18 73.9101 822.48 73.9711 822.141C75.9276 811.164 78.3061 801.063 80.6051 790.836C82.9301 780.493 85.0631 769.744 87.0886 758.759C91.2641 736.119 95.1506 712.868 99.0446 689.707C99.5941 686.439 100.151 683.185 100.708 679.93C100.083 684.952 99.4226 689.921 98.7511 694.879C97.3456 705.261 96.1166 715.726 94.9716 726.437C94.3626 732.137 93.6951 737.756 92.8211 743.089C91.9586 748.354 90.9646 753.385 90.0001 758.455C87.9926 769.018 85.9626 779.538 83.9811 790.151C81.7411 802.151 79.5046 814.146 77.3251 826.262C77.2691 826.574 77.4136 826.844 77.4736 826.545C81.6906 805.504 85.7431 784.133 89.8006 762.766C91.7006 752.762 93.6436 742.969 94.9206 731.91C95.5661 726.318 96.1096 720.608 96.7411 715C97.3726 709.396 98.0951 703.907 98.8311 698.44C99.0526 696.799 99.2801 695.147 99.5101 693.489C98.8641 700.522 98.4331 707.691 98.1086 714.981C97.7116 723.898 97.3836 732.889 96.5826 741.546C94.9936 758.717 91.9791 774.187 89.2746 789.675C86.4321 805.953 83.5671 822.189 80.6791 838.384C79.0701 847.407 77.4541 856.415 75.8316 865.41C74.1691 874.628 72.4111 883.724 70.9276 893.259C70.8451 893.787 71.0676 894.202 71.1701 893.718C72.8081 886.022 74.2216 877.834 75.6901 869.787C77.1586 861.737 78.6141 853.661 80.0671 845.583C82.9731 829.424 85.8566 813.222 88.7171 796.977C91.4186 781.638 94.4206 766.389 96.4056 749.876C98.4341 733.001 98.3141 714.819 99.7211 697.471C101.267 678.413 104.288 661.24 107.124 643.98C107.141 643.877 107.136 643.786 107.124 643.708C110.086 628.943 112.566 612.891 115.619 598.568C118.814 583.581 122.842 570.823 127.341 559.985C129.633 554.463 132.032 549.448 134.48 544.688C136.832 540.118 139.209 535.651 141.385 530.21C143.353 525.29 145.096 519.589 146.466 512.842C147.768 506.424 148.757 499.361 149.549 492.132C150.71 481.539 151.447 470.536 151.913 459.41C152.16 491.309 154.349 523.099 154.399 555.062C154.413 563.941 154.248 572.858 153.846 581.633C153.382 584.101 152.886 586.503 152.358 588.816C148.833 604.261 143.793 614.818 139.773 628.734C131.978 655.724 130.203 693.937 125.968 727.02C121.173 764.453 114.183 798.135 106.988 831.053C105.203 839.206 103.393 847.326 101.588 855.431C101.398 856.274 101.828 857.071 102.018 856.243C109.388 824.185 116.723 791.801 122.483 756.333C122.933 753.572 123.368 750.795 123.793 748.002C124.188 745.387 124.568 742.772 124.943 740.142L124.948 740.174C124.988 740.58 125.183 740.645 125.248 740.158C126.018 734.23 126.858 728.562 127.998 723.268C129.118 718.055 130.388 713.248 131.698 708.555C134.378 698.941 137.393 690.398 140.278 681.45C143.093 672.682 145.818 663.424 147.878 652.608C150.183 640.542 151.238 626.981 152.123 613.21C152.255 611.16 152.386 609.096 152.519 607.029C153.47 599.308 154.114 591.278 154.518 583.06C154.646 582.368 154.775 581.664 154.898 580.939C155.043 580.143 155.178 579.315 155.313 578.487C155.448 577.659 155.578 576.829 155.703 575.986C156.276 573.392 156.863 570.84 157.452 568.288C157.502 568.42 157.574 568.441 157.611 568.192C157.693 567.647 157.767 567.093 157.848 566.546C163.275 543.274 169.396 521.884 176.368 503.28C180.468 492.335 184.828 482.638 189.363 473.69C193.748 465.051 198.213 456.768 202.423 447.187C206.663 437.542 210.538 426.481 213.713 413.131C217.153 398.645 219.828 382.454 222.613 366.605C228.578 332.63 234.738 299.014 241.108 265.804C244.278 249.271 247.498 232.819 250.773 216.483C252.408 208.314 254.053 200.178 255.708 192.042C257.243 184.505 258.688 176.711 260.468 169.744C261.353 166.254 262.393 163.183 263.503 160.471C263.598 160.244 263.558 159.838 263.483 159.724C267.248 150.061 270.868 139.814 274.263 128.77C281.657 104.768 287.673 76.8999 294.168 50.4125C300.273 25.5328 306.978 0.912941 315.603 -14.9373C317.838 -19.046 320.183 -22.4727 322.603 -25.2335C322.843 -25.5096 322.738 -26.7438 322.503 -26.4677C303.258 -4.44627 292.788 57.4768 280.253 105.255C274.781 126.115 268.581 144.523 261.937 161.199C261.944 160.721 261.71 160.388 261.596 160.895C261.396 161.793 261.19 162.676 260.986 163.566C258.459 169.806 255.873 175.81 253.238 181.599C248.068 192.951 242.748 203.588 237.428 214.162C234.593 219.781 231.728 225.236 228.768 230.108C225.833 234.948 222.798 239.139 219.848 243.896C214.363 252.714 209.023 262.702 204.278 275.336C199.493 288.052 195.423 303.269 191.528 318.779C182.988 352.769 174.603 387.181 166.148 421.397C164.348 428.689 162.498 435.966 161.108 444.182C159.748 452.172 158.963 460.861 158.603 469.906C157.748 491.278 159.143 513.106 157.918 534.347C157.643 539.121 157.213 543.784 156.973 548.574C156.718 553.528 156.693 558.495 156.303 563.385C155.951 567.783 155.433 572.009 154.803 576.061C155.606 552.037 154.632 526.797 153.763 503.508C152.963 482.077 152.173 460.435 152.668 438.818C152.911 428.218 153.481 417.674 154.515 407.576C155.626 396.709 157.341 386.738 159.166 376.991C162.866 357.225 166.856 338.135 171.035 319.425C175.499 303.034 179.816 286.247 184.416 270.25C189.024 254.228 193.847 238.805 199.051 224.815C204.218 210.927 209.775 198.46 215.755 188.547C221.679 178.725 227.97 172.318 234.353 166.498C240.532 160.864 246.783 155.495 252.616 146.641C258.378 137.894 263.305 125.438 267.199 109.076C271.096 92.6982 273.957 74.1115 277.108 56.2036C278.689 47.2245 280.345 38.364 282.236 30.0329C284.31 20.8979 286.71 12.6593 289.35 5.22952C294.994 -10.6564 301.491 -23.1466 307.76 -36.1971C314.642 -50.5208 321.523 -64.8461 328.404 -79.1714C330.137 -82.7783 331.868 -86.3852 333.576 -90.1139C333.984 -91.0201 333.618 -93.1248 333.193 -92.2836ZM102.255 671.141C102.272 670.954 102.287 670.768 102.303 670.581C102.338 670.376 102.373 670.173 102.408 669.969C102.496 669.446 102.587 668.921 102.678 668.395C102.537 669.309 102.393 670.22 102.255 671.141ZM103.478 659.843C103.269 660.808 103.055 661.761 102.841 662.713C102.824 662.594 102.797 662.503 102.761 662.471C103.013 661.561 103.258 660.629 103.501 659.693C103.493 659.744 103.486 659.793 103.478 659.843ZM104.691 656.207C104.78 655.58 104.865 654.948 104.948 654.315C105.107 653.446 105.267 652.58 105.424 651.71C105.537 651.208 105.65 650.71 105.761 650.203C105.399 652.192 105.043 654.195 104.691 656.207ZM158.11 562.188C158.072 562.398 158.035 562.609 157.997 562.82C157.856 563.437 157.711 564.043 157.571 564.662C161.521 536.023 160.229 502.398 162.352 472.18C162.972 463.365 163.894 454.853 165.205 446.867C166.643 438.107 168.431 429.99 170.256 422.047C174.069 405.44 178.283 389.84 182.421 374.092C186.623 358.099 190.792 342.015 195.019 326.091C198.918 311.404 202.888 296.814 207.388 284.017C215.096 262.096 224.304 247.085 233.282 231.519C238.2 222.993 243.165 214.23 247.804 204.033C247.687 204.338 247.573 204.654 247.456 204.957C243.329 215.674 239.056 225.824 234.66 235.347C230.274 244.849 225.739 253.466 221.161 261.945C218.803 266.314 216.461 270.819 214.271 276.046C212.143 281.124 210.191 286.908 208.319 292.939C204.453 305.397 200.716 318.311 196.964 331.129C193.196 344.004 189.465 356.998 185.839 370.297C182.218 383.578 178.7 397.162 175.355 411.191C172.142 424.67 168.862 438.456 166.543 453.826C164.179 469.489 163.336 486.463 162.59 503.572C162.205 512.387 161.796 521.176 161.195 529.866C160.599 538.489 159.795 546.889 158.904 555.23C158.653 557.567 158.387 559.884 158.11 562.188ZM162.528 518.591C163.448 501.425 163.841 483.822 165.578 467.228C167.298 450.802 170.417 436.385 173.564 422.546C176.815 408.245 180.261 394.42 183.826 380.931C190.925 354.066 198.492 328.566 206.057 303.097C207.927 296.803 209.807 290.522 211.835 284.761C213.898 278.9 216.132 273.808 218.471 269.173C222.99 260.215 227.658 252.138 232.118 242.845C239.986 226.454 247.606 208.096 254.488 187.436C255.273 185.213 256.041 182.921 256.788 180.55C255.147 186.729 253.437 192.719 251.676 198.567C248.119 210.381 244.303 221.384 240.264 231.432C236.232 241.463 231.979 250.514 227.553 258.601C222.794 267.298 217.975 275.439 213.776 286.93C209.627 298.284 206.038 311.584 202.414 324.641C198.493 338.768 194.579 352.918 190.697 367.162C186.816 381.403 182.976 395.759 179.215 410.338C175.807 423.551 172.224 436.869 169.88 452.473C167.451 468.641 167.004 486.646 165.644 503.864C164.302 520.848 162.324 537.314 159.757 552.74C159.655 553.354 159.547 553.96 159.443 554.57C160.837 542.959 161.866 530.925 162.528 518.591ZM260.678 166.735C261.155 165.567 261.632 164.399 262.105 163.212C258.44 173.833 255.775 187.995 253.095 201.149C249.755 217.501 246.465 233.97 243.225 250.533C236.745 283.663 230.465 317.216 224.415 351.189C221.52 367.445 218.81 384.14 215.63 399.827C212.59 414.801 208.95 427.807 204.575 438.769C200.515 448.937 196.09 457.413 191.705 465.955C187.225 474.676 182.83 483.723 178.7 494.115C171.554 512.099 165.101 532.978 159.543 556.131C161.794 544.261 163.585 531.409 164.978 518.274C165.857 509.982 166.522 501.464 167.061 492.875C167.621 483.954 168.085 474.942 168.909 466.226C170.517 449.212 173.796 434.904 177.223 421.298C180.912 406.656 184.701 392.279 188.532 378.027C192.384 363.698 196.291 349.527 200.208 335.389C203.902 322.059 207.515 308.361 211.523 296.005C213.511 289.878 215.612 284.134 217.877 279.117C220.167 274.045 222.589 269.656 225.013 265.313C229.554 257.18 233.984 248.605 238.186 238.709C242.23 229.184 246.072 218.748 249.67 207.491C253.319 196.076 256.594 183.741 259.722 170.814C260.048 169.474 260.359 168.094 260.678 166.735ZM158.37 539.769C159.05 530.106 159.22 520.346 159.2 510.456C159.15 489.62 158.39 467.452 161.355 448.143C162.75 439.032 164.755 431.091 166.705 423.198C168.845 414.543 170.985 405.887 173.12 397.231C177.4 379.937 181.675 362.623 185.95 345.311C189.87 329.445 193.705 313.272 197.965 298.345C202.235 283.372 207 270.461 212.37 259.824C217.9 248.895 223.845 240.919 229.57 231.274C235.275 221.676 240.68 210.178 246.11 199.086C250.726 189.649 255.272 179.775 259.657 169.213C259.597 169.463 259.538 169.716 259.477 169.966C256.074 181.2 252.504 191.569 248.511 200.605C244.439 209.819 240.125 217.831 235.768 225.52C226.957 241.072 217.896 255.558 209.97 275.764C205.357 287.525 201.302 301.34 197.432 315.6C193.235 331.064 189.122 346.775 184.958 362.329C180.774 377.955 176.534 393.469 172.52 409.563C168.826 424.379 165.039 440.007 162.998 458.089C159.276 491.061 161.221 527.61 157.646 560.69C157.442 562.577 157.226 564.444 156.997 566.294C156.922 566.588 156.855 566.892 156.779 567.184C157.645 558.299 157.725 548.831 158.37 539.769Z" fill="#27CEC5"/>
<path d="M145.595 -35.6636C146.65 -37.8722 147.715 -40.0484 148.785 -42.1758C149.09 -42.793 148.99 -44.5956 148.595 -44.4982C131.85 -40.1783 115.105 -35.7448 98.3549 -31.4899C96.2399 -30.954 94.1299 -30.4181 92.0149 -29.8822C91.0399 -29.6386 90.0649 -29.395 89.0899 -29.1351C88.2249 -28.924 87.2949 -28.924 86.4599 -28.047C84.9999 -26.5042 84.2149 -21.681 83.4399 -17.7346C82.5649 -13.2686 81.7449 -8.68895 80.9599 -4.04432C77.8599 14.1786 75.2349 33.4214 71.4099 50.2298C69.4499 58.8532 67.1499 66.6646 64.4549 72.8537C61.5849 79.4455 58.3799 84.579 55.8049 92.4538C50.8549 107.606 49.0399 129.919 46.1499 149.213C42.9099 170.83 38.6149 190.56 33.9099 209.041C31.5699 218.216 29.1349 227.1 26.6499 235.855C24.1599 244.639 21.6999 253.719 19.0399 261.967C17.6249 266.368 16.0649 269.795 14.2199 271.971C12.5399 273.954 10.7849 275.107 9.05494 276.536C6.09994 278.954 3.18993 281.976 0.379934 285.84C-4.93507 293.148 -10.1451 303.834 -13.3051 319.944C-14.0601 323.793 -14.5851 327.934 -15.1001 332.158C-15.1851 332.824 -14.8501 333.116 -14.7701 332.45C-12.5401 314.276 -7.40507 300.798 -2.19007 292.142C0.549934 287.595 3.43994 284.071 6.38494 281.198C9.58994 278.08 13.0599 276.698 16.0649 271.747C16.2644 271.419 16.4604 271.073 16.6539 270.709C16.6514 270.72 16.6489 270.732 16.6464 270.741C15.4969 273.598 14.2884 276.166 12.9844 278.33C11.0449 281.551 9.01093 284.123 7.00743 286.887C4.94444 289.732 2.91093 292.779 1.01394 296.68C-1.00307 300.828 -2.87057 305.7 -4.63857 310.898C-6.67307 316.881 -8.56107 323.377 -10.4511 329.832C-10.5346 330.115 -10.4036 330.54 -10.3186 330.263C-6.87057 318.948 -3.37557 307.431 0.768435 298.776C4.55544 290.869 8.88293 286.767 12.8824 280.24C13.6369 279.009 14.3904 277.681 15.1154 276.209C8.79494 291.79 1.86644 305.003 -3.79307 323.149C-5.64357 329.08 -7.33807 335.498 -8.83357 342.407C-8.88607 342.65 -8.76507 342.87 -8.71207 342.639C-3.16757 318.295 4.81043 302.369 12.2544 284.927C13.1799 282.757 14.0914 280.524 14.9914 278.246C14.9064 278.634 14.8204 279.017 14.7359 279.405C14.0799 281.552 13.4239 283.698 12.7689 285.846C11.0159 291.595 9.25644 297.323 7.48944 303.028C3.92743 314.533 0.336435 325.946 -3.28106 337.265C-5.33957 343.706 -7.37257 350.233 -9.42457 356.698C-9.52607 357.018 -9.37307 357.508 -9.27007 357.201C-1.87107 335.115 5.31094 312.282 12.4054 289.167C12.6419 288.397 12.8759 287.618 13.1119 286.847C11.2394 295.452 9.36444 304.051 7.39544 312.446C4.10894 326.454 0.705435 340.179 -2.82057 353.557C-4.79407 361.047 -6.75907 368.561 -8.77207 375.939C-8.85807 376.254 -8.71907 376.717 -8.62807 376.405C-1.18907 351.012 5.60344 323.718 11.8959 295.251C13.0184 290.174 14.1429 285.078 15.2274 279.899C15.2629 279.781 15.2994 279.664 15.3349 279.547C15.6719 278.428 16.0169 277.317 16.3614 276.204C15.7594 279.266 15.1684 282.348 14.5969 285.469C12.7154 295.736 11.0159 306.359 9.31093 316.943C5.96693 337.691 2.65593 358.679 -1.65107 377.544C-2.86007 382.838 -4.14707 387.952 -5.52557 392.793C-6.20357 395.175 -6.90456 397.491 -7.62807 399.729C-8.37607 402.042 -9.23057 404.096 -9.88106 406.694C-10.0061 407.193 -9.85257 407.942 -9.66357 407.61C-8.89257 406.264 -8.26857 404.244 -7.62857 402.319C-6.96307 400.319 -6.31657 398.253 -5.68857 396.129C-4.45907 391.971 -3.29907 387.598 -2.20707 383.056C-0.0100651 373.917 1.93393 364.175 3.73493 354.173C7.44393 333.571 10.5634 311.928 14.1794 291.16C15.1984 285.307 16.2399 279.495 17.3484 273.816C17.5509 272.778 17.7624 271.758 17.9734 270.738C18.1129 270.23 18.2554 269.731 18.3889 269.21C18.4014 269.16 18.4079 269.109 18.4154 269.057C18.4439 268.908 18.4449 268.747 18.4229 268.607C18.4219 268.599 18.4219 268.591 18.4209 268.583C18.7384 267.081 19.0564 265.582 19.3754 264.083C20.9669 259.375 22.3814 253.862 23.8134 248.913C25.8734 241.784 27.9084 234.591 29.9134 227.283C31.1879 223.438 32.4554 219.571 33.7219 215.701C33.7249 215.691 33.7289 215.696 33.7319 215.685C33.7369 215.665 33.7419 215.644 33.7474 215.624C35.5379 210.153 37.3244 204.666 39.1089 199.155C42.6739 188.161 46.2989 177.266 50.2439 167.682C54.1889 158.084 58.4339 150.354 62.9839 144.199C67.4739 138.126 72.1289 133.481 76.7339 128.398C78.2174 126.762 79.6964 125.065 81.1644 123.277C74.8064 137.275 69.9874 157.743 66.6609 180.161C64.5144 194.629 62.9064 209.903 61.6389 225.411C60.3869 240.731 59.7494 257.032 57.6934 271.524C55.6744 285.757 51.9344 295.218 48.5879 305.985C45.1734 316.972 42.3119 329.579 39.5464 342.296C36.8084 354.891 34.2259 368.31 30.8939 379.371C29.3399 384.53 27.5674 389.09 25.5264 392.038C23.1874 395.414 20.6154 396.296 18.1214 397.761C18.0339 397.813 17.9489 397.884 17.8614 397.94C17.8284 397.879 17.7884 397.857 17.7514 397.951C17.7399 397.98 17.7289 398.009 17.7179 398.039C8.90443 403.635 1.46843 421.952 -5.00757 441.323C-5.82757 443.775 -6.63107 446.265 -7.41857 448.826C-7.47657 449.014 -7.39107 449.276 -7.33007 449.113C-3.74857 439.543 -0.373567 429.219 3.41593 420.482C7.12343 411.935 11.1704 404.697 15.5814 400.837C16.0779 400.401 16.5784 400.036 17.0809 399.698C9.11293 420.372 2.28044 445.864 -3.05857 474.073C-4.58057 482.115 -6.11007 490.384 -7.21557 499.129C-7.27707 499.618 -7.03707 499.915 -6.95857 499.482C-5.64357 492.224 -4.47857 484.7 -3.13107 477.496C-1.78507 470.297 -0.353065 463.26 1.16294 456.43C4.22593 442.629 7.64843 429.669 11.3794 417.731C13.3589 411.394 15.4024 405.252 17.5199 399.403C19.2854 398.285 21.0729 397.54 22.8254 396.19C25.0104 394.51 27.0099 391.51 28.7969 387.085C32.3394 378.312 34.8989 365.879 37.4389 354.189C40.2749 341.135 43.0399 327.857 46.2824 315.811C47.8369 310.034 49.5249 304.733 51.2514 299.506C52.9129 294.476 54.5724 289.382 55.9479 283.483C58.8164 271.185 59.8099 255.976 60.8804 241.267C62.0294 225.484 63.3879 209.798 65.2289 194.706C68.6059 167.013 73.8704 140.388 81.5544 123.384C81.7819 122.881 82.0159 122.415 82.2474 121.931C84.8639 118.631 87.4354 114.967 89.9059 110.61C93.8809 103.594 97.5909 95.1334 101.121 85.974C108.371 67.1031 114.801 45.2441 121.611 24.7963C129.06 2.45169 137.07 -17.8321 145.595 -35.6636ZM92.2499 102.652C88.0849 110.837 83.6499 117.122 79.0699 122.433C74.4899 127.745 69.8199 132.29 65.2699 137.895C60.7249 143.498 56.3999 150.416 52.3999 159.397C48.4549 168.264 44.8499 178.576 41.3749 189.262C40.4449 192.125 39.5249 195.024 38.6034 197.916C47.2394 168.309 55.8854 138.764 64.8454 110.165C66.1064 106.139 67.3734 102.123 68.7259 98.4187C70.1204 94.6007 71.6184 91.3218 73.1739 88.2427C76.0044 82.6432 78.7339 77.0339 81.1584 69.6284C85.8344 55.3519 89.3394 37.7477 93.2559 21.381C97.5539 3.42284 102.639 -14.04 109.431 -21.5673C109.724 -21.8921 109.6 -23.404 109.303 -23.0841C96.8694 -9.74618 91.1859 32.6889 82.8524 61.7926C80.5954 69.6755 78.0944 76.5564 75.2774 82.2404C73.7219 85.3812 72.1234 88.3028 70.6199 91.7067C69.2159 94.8849 67.9149 98.5064 66.6654 102.297C61.2089 118.85 56.0199 136.458 50.8314 153.89C46.9589 166.901 43.1284 180.041 39.3754 193.41C42.1834 182.297 44.9849 171.167 47.7724 159.999C50.0729 150.781 52.3734 141.564 54.6739 132.346C56.8794 123.51 59.0339 114.49 61.3654 105.995C63.6489 97.6765 66.1999 90.5504 68.9664 83.9814C71.5559 77.8313 74.2144 71.9524 76.5979 64.9497C80.9044 52.2987 84.3064 36.8643 87.6879 21.6457C91.4969 4.50118 95.3799 -12.8253 100.539 -25.9975C100.76 -26.5627 100.449 -27.5615 100.23 -27.0028C91.0029 -3.45967 86.0509 32.4502 77.8429 59.0952C73.2379 74.0441 67.3589 83.8953 62.7819 98.9286C60.3339 106.969 58.1899 115.934 56.0039 124.715C53.6799 134.046 51.3564 143.379 49.0324 152.711C47.8244 157.563 46.6229 162.43 45.4184 167.291C47.2244 159.099 48.9579 150.739 50.6069 142.207C52.4544 132.645 54.0944 122.696 55.9159 113.09C56.8554 108.135 57.8769 103.318 59.0854 99.0098C60.2234 94.9515 61.5284 91.4583 62.8994 88.2638C65.5274 82.1381 68.3524 76.9348 70.8084 70.0491C75.2254 57.6677 78.4309 41.5609 81.4994 25.6359C83.2654 16.4701 85.0039 7.23599 86.9484 -1.5466C88.9119 -10.4153 91.1319 -18.2511 93.5599 -25.7816C93.7224 -26.285 93.5004 -27.2805 93.3139 -26.8177C91.0494 -21.1954 89.1659 -13.8825 87.4494 -6.5404C85.6484 1.16223 84.0399 9.31634 82.4604 17.5078C79.3364 33.7088 76.2919 50.4246 72.0834 63.9721C69.7739 71.4067 67.0954 77.0859 64.4034 82.9209C61.6594 88.8663 59.1544 95.3526 57.1804 104.03C55.1334 113.027 53.5774 123.108 51.8269 132.713C50.0379 142.53 48.1439 152.146 46.1499 161.535C42.6999 177.782 38.9509 193.368 34.9494 208.229C38.2134 195.246 41.2649 181.691 43.8864 167.254C45.6814 157.412 47.2114 147.165 48.5914 136.64C49.8914 126.701 51.1414 116.616 52.9114 107.425C54.8364 97.4216 57.3864 90.0973 60.4264 83.7637C63.2664 77.8524 66.0964 72.2333 68.5014 64.4381C72.9564 49.9862 75.9014 31.5863 78.7814 13.641C80.2564 4.44921 81.7264 -4.75887 83.3864 -13.6097C84.2464 -18.1731 85.1714 -24.8315 86.8814 -26.3094C87.7914 -27.1051 88.8064 -27.0239 89.7414 -27.2675C90.8264 -27.5436 91.9064 -27.8197 92.9914 -28.0958C109.466 -32.2857 125.931 -36.9303 142.416 -40.6168C143.976 -40.9578 145.536 -41.2989 147.096 -41.6562C138.936 -25.0751 131.191 -6.36663 123.981 14.3394C116.991 34.412 110.546 56.4172 103.431 76.0351C99.9049 85.7466 96.2099 94.8573 92.2499 102.652Z" fill="#27CEC5"/>
<path d="M150.126 -15.2259C148.851 -12.6746 147.7 -9.47532 146.502 -6.56511C145.359 -3.7897 144.201 -1.07274 143.018 1.51916C140.523 6.97905 137.91 11.8251 135.126 15.5619C132.38 19.2532 129.536 22.1164 126.798 25.8775C124.23 29.4049 121.748 33.5753 119.377 38.3417C116.721 43.6831 114.22 49.8218 111.889 56.5744C111.806 56.8147 111.928 57.2045 112.011 56.969C116.27 44.966 121.095 35.0726 126.276 27.8345C129.138 23.8345 132.126 20.9276 135.017 17.1745C137.642 13.7625 140.125 9.39718 142.496 4.40663C143.882 1.48993 145.23 -1.61354 146.559 -4.80145C147.835 -7.86594 149.167 -10.8541 150.315 -14.4253C150.443 -14.8248 150.278 -15.5296 150.126 -15.2259Z" fill="#27CEC5"/>
<path d="M60.9462 -17.5101C57.2192 -9.06038 53.5992 -0.130003 49.9067 8.47557C46.2957 16.8895 42.5417 24.1407 38.4142 29.56C32.4877 37.3422 26.1937 42.6965 20.6367 52.9147C22.8407 48.0719 25.1582 43.7196 27.5032 39.606C33.2402 29.547 39.2297 20.9235 44.7237 9.44348C47.6967 3.23168 50.6252 -3.89281 52.9527 -12.5942C53.0507 -12.9612 52.8957 -13.4809 52.7867 -13.1334C50.4632 -5.71332 47.9962 0.945084 45.2802 6.80772C42.5607 12.6769 39.6952 17.7908 36.8002 22.6758C31.0427 32.3938 25.1047 41.2284 19.8157 53.5724C19.3617 54.6313 18.9162 55.7259 18.4752 56.8367C25.8632 35.8367 34.6172 19.9069 42.5562 1.28612C45.4117 -5.41288 48.2742 -12.4123 50.7837 -20.4657C50.9502 -21 50.7027 -21.7795 50.5297 -21.2907C48.0567 -14.3027 45.5562 -7.52732 42.9067 -1.24732C40.2912 4.95312 37.6012 10.8109 34.9032 16.6199C29.6307 27.9749 24.3152 39.1919 19.4872 52.5266C17.9877 56.6661 16.5487 61.0315 15.1752 65.6014C15.0677 65.9213 14.9622 66.2477 14.8562 66.5725C17.0892 53.0755 20.3622 41.852 23.8187 31.296C27.0962 23.8808 30.3732 16.464 33.6502 9.05047C35.4692 4.93525 37.2702 0.714476 39.1217 -3.24483C40.8682 -6.98166 42.6732 -10.3823 44.6867 -12.3522C45.1192 -12.7728 44.9352 -14.9782 44.5002 -14.5527C40.3957 -10.5366 36.9742 -1.11577 33.5437 6.85807C31.2207 12.2562 28.8977 17.656 26.5742 23.0558L26.6827 22.7359C19.1487 32.868 11.6687 43.4159 4.23774 54.3195C5.99424 45.7074 7.75074 37.0969 9.50724 28.4832C10.8637 21.8297 12.2092 15.1535 13.5542 8.47557C14.2377 5.07979 14.9217 1.684 15.6057 -1.71016C15.9247 -3.2968 16.2437 -4.8802 16.5627 -6.46523C16.8832 -8.05512 17.2847 -9.62066 17.4652 -11.4428C17.5057 -11.852 17.3442 -12.0891 17.2562 -11.8374C16.8147 -10.5691 16.5327 -8.72096 16.2122 -7.13107C15.8932 -5.54604 15.5742 -3.96102 15.2547 -2.376C14.5707 1.01979 13.8872 4.41395 13.2037 7.80973C11.8587 14.486 10.5147 21.1655 9.18224 27.8678C7.38624 36.9004 5.59024 45.9348 3.79424 54.9674C0.565742 59.7128 -2.65576 64.5052 -5.86426 69.3934L-4.87726 143.404C0.830242 138.849 5.92024 126.641 8.93974 110.265C11.2392 97.7956 12.3357 83.3891 14.2742 70.2996C17.5452 59.5439 21.8932 51.9257 26.1582 46.422C30.1207 41.3096 34.1962 37.1846 38.1567 32.0544C42.1157 26.9258 45.7697 20.3227 49.2537 12.3569C53.3027 3.10013 57.2612 -6.69908 61.1552 -16.6315C61.3067 -17.0212 61.1057 -17.8722 60.9462 -17.5101Z" fill="#27CEC5"/>
</g>
</g>
</svg>
