<svg width="181" height="179" viewBox="0 0 181 179" fill="none" xmlns="http://www.w3.org/2000/svg">
<path d="M107.559 164.325C105.343 164.325 103.019 163.512 101.495 162.199L82.1701 145.574C81.0586 144.616 80.5012 143.502 80.6431 142.516C80.7647 141.679 81.3965 140.963 82.4235 140.498L107.34 129.254C107.073 130.162 106.931 131.073 106.917 131.954L106.512 157.429C106.478 159.603 107.272 161.385 108.694 162.324C109.39 162.783 110.178 163.015 111.042 163.015C111.559 163.015 112.086 162.931 112.62 162.766L110.363 163.785C109.58 164.14 108.61 164.325 107.563 164.325H107.559Z" fill="#FAE9FF"/>
<path d="M106.38 130.432C106.296 130.941 106.248 131.451 106.242 131.947L105.836 157.422C105.799 159.829 106.705 161.824 108.323 162.89C108.657 163.11 109.015 163.288 109.394 163.417C108.843 163.569 108.221 163.65 107.559 163.65C105.498 163.65 103.343 162.897 101.934 161.688L82.6094 145.064C81.6736 144.261 81.2006 143.366 81.3087 142.614C81.4202 141.844 82.1263 141.371 82.6972 141.115L106.377 130.432M108.536 127.978L82.1465 139.886C79.3863 141.132 79.2005 143.91 81.731 146.087L101.056 162.711C102.762 164.18 105.265 165 107.563 165C108.678 165 109.742 164.807 110.644 164.399L159.604 142.31C160.716 141.807 161.402 141.058 161.665 140.2L113.056 161.881C112.367 162.188 111.688 162.343 111.046 162.343C110.326 162.343 109.657 162.151 109.069 161.763C107.846 160.956 107.161 159.38 107.191 157.442L107.596 131.967C107.617 130.627 107.961 129.25 108.539 127.978H108.536Z" fill="#FAE9FF"/>
<path d="M111.049 160.315C110.718 160.315 110.427 160.234 110.184 160.075C109.559 159.663 109.198 158.691 109.218 157.476L109.623 132.001C109.667 129.189 111.64 125.952 113.927 124.933L162.983 103.053C163.402 102.867 163.8 102.77 164.162 102.77C164.493 102.77 164.783 102.851 165.027 103.009C165.652 103.421 166.013 104.393 165.996 105.608L165.591 131.083C165.547 133.895 163.574 137.132 161.287 138.151L112.231 160.031C111.813 160.217 111.414 160.315 111.052 160.315H111.049Z" fill="#FAE9FF"/>
<path d="M164.158 103.444C164.358 103.444 164.52 103.488 164.652 103.572C164.986 103.792 165.334 104.44 165.317 105.598L164.912 131.072C164.871 133.651 163.084 136.608 161.006 137.536L111.951 159.416C111.623 159.561 111.312 159.639 111.049 159.639C110.85 159.639 110.687 159.595 110.556 159.511C110.221 159.291 109.873 158.643 109.89 157.485L110.296 132.011C110.336 129.435 112.123 126.475 114.201 125.547L163.256 103.667C163.584 103.522 163.895 103.444 164.158 103.444ZM164.158 102.094C163.706 102.094 163.216 102.209 162.706 102.435L113.65 124.315C111.103 125.449 108.995 128.892 108.944 131.99L108.539 157.465C108.515 158.934 108.978 160.088 109.809 160.638C110.167 160.874 110.586 160.989 111.046 160.989C111.505 160.989 111.988 160.874 112.498 160.648L161.553 138.768C164.097 137.634 166.209 134.191 166.26 131.093L166.665 105.618C166.689 104.149 166.226 102.995 165.395 102.445C165.037 102.209 164.618 102.094 164.158 102.094Z" fill="#FAE9FF"/>
<path d="M92.6536 128.703C99.4646 134.009 96.8497 145.121 86.0454 141.013C75.2377 136.905 75.6363 127.886 75.6363 127.886C75.6363 127.886 80.6669 129.503 83.7514 129.83C86.8359 130.157 92.6536 128.703 92.6536 128.703Z" fill="#B0F1ED"/>
<path d="M99.4714 50.1557C101.37 57.2239 99.1842 64.2888 99.1842 64.2888C95.728 36.9035 75.9641 19.7729 67.2848 15C54.5987 15.2397 40.6457 26.0243 40.6457 26.0243C66.5247 24.9914 76.41 35.5128 84.3832 46.4663C80.8324 45.5177 77.2513 44.873 73.6971 44.5456C75.258 46.1422 76.606 47.938 77.7074 49.9092C77.8729 50.2029 77.8189 50.5877 77.5553 50.797C77.2175 51.0603 76.7445 50.9556 76.5452 50.5978C75.2006 48.1877 73.4742 46.0477 71.4167 44.2384C63.7611 37.5178 52.6359 36.3331 43.7336 41.295C40.4903 43.1043 37.9531 45.9971 36.5983 49.4434C34.8179 53.9497 35.1524 58.9589 37.5139 63.1884C40.3822 68.3293 46.9026 70.179 52.0514 67.3099C52.896 66.8373 53.619 66.2094 54.1933 65.4635C54.9028 64.5386 55.3386 63.4213 55.4163 62.2601C55.5042 60.9099 55.1021 59.6846 53.6764 59.2458C50.3115 58.2129 49.4061 60.5386 49.4061 60.5386C48.1797 57.6492 47.9398 56.0627 47.9162 55.3404C47.8351 55.1176 47.8182 54.9151 47.9398 54.8476C49.3115 54.0847 50.8993 53.8991 52.4095 54.3278C53.9197 54.7564 55.1731 55.7488 55.94 57.1193C57.0312 59.0669 57.2947 61.3218 56.6832 63.4719C56.0751 65.6187 54.6629 67.401 52.7136 68.4913C50.896 69.5039 48.8925 70.0204 46.8655 70.0204C45.7607 70.0204 44.6526 69.8685 43.5613 69.5579C40.4667 68.6803 37.9024 66.6516 36.3382 63.8466C33.9598 59.5868 33.48 54.5944 34.9733 49.9936C27.1725 51.0569 20.4358 55.786 16.8074 62.8103C13.2093 69.7672 15.1181 78.2498 21.3412 82.989C21.3412 82.989 21.3412 82.989 21.3446 82.989C22.0913 83.5561 22.892 84.0624 23.7264 84.4911C25.4055 85.3586 27.2806 85.7602 29.1488 85.6691C31.0779 85.5746 32.9158 84.9535 34.4834 83.924C36.149 82.8303 37.399 81.1662 37.7808 79.2118C38.7572 74.2228 33.8246 71.6474 32.4969 73.0819C30.9428 74.7629 31.8482 76.7004 31.8482 76.7004C29.1793 75.3131 28.1623 72.876 27.8853 72.0659C27.8008 71.968 27.7569 71.8701 27.8008 71.7891C28.5205 70.3951 29.7435 69.3622 31.2401 68.8862C32.7368 68.4103 34.328 68.5419 35.7267 69.2643C37.7132 70.287 39.1795 72.022 39.8585 74.1486C40.5376 76.2751 40.345 78.5367 39.3214 80.5215C37.3619 84.3155 33.4868 86.8033 29.2164 87.0159C29.0137 87.0261 28.8144 87.0294 28.6117 87.0294C26.7096 87.0294 24.8177 86.5704 23.1082 85.6894C22.5102 85.3822 21.9291 85.0345 21.3683 84.6598C20.6149 88.5045 21.3243 92.4201 23.4089 95.7888C25.9765 99.9271 31.1523 101.713 35.7132 100.032C36.1152 99.8866 36.5071 99.7145 36.8923 99.5153C38.443 98.7154 40.1558 96.7272 40.5815 95.0395C41.0342 93.2504 40.7471 91.3939 39.7741 89.8311C39.7741 89.8311 39.7741 89.8277 39.7707 89.8243C39.5106 89.4058 39.1153 89.075 38.6626 88.8826C37.1963 88.2514 35.649 88.6632 35.5139 89.6758C35.2537 91.6133 36.5477 92.8893 36.5477 92.8893C32.8753 93.2842 32.0104 93.0547 31.8077 92.9433C31.8009 92.9399 31.7942 92.9365 31.7874 92.9298C31.7503 92.9061 31.7469 92.8893 31.7469 92.8893C31.578 92.7002 31.4597 92.4572 31.3955 92.1737C30.7232 90.388 31.382 88.3155 33.0645 87.2725C34.3584 86.4691 35.8922 86.2227 37.3754 86.5704C38.8585 86.918 40.1187 87.8227 40.9228 89.1189C42.1559 91.1036 42.4701 93.48 41.7876 95.7415C41.2099 97.6521 39.1964 99.8698 37.4092 100.764C37.2706 100.835 37.1288 100.899 36.9902 100.963C43.1154 109.53 52.244 116.818 62.8016 121.54C75.5384 127.238 89.1806 128.858 101.208 126.104C113.168 123.367 122.1 116.626 126.357 107.124C134.077 89.8986 130.523 67.2221 99.4714 50.1557Z" fill="#B0F1ED"/>
<path d="M115.826 102.128C115.826 102.128 124.499 97.4095 129.644 90.3885C129.644 90.3885 126.134 83.165 122.249 84.2789C118.36 85.3928 109.519 89.5277 115.826 102.128Z" fill="white"/>
<path d="M115.826 102.128C115.826 102.128 109.972 93.362 116.728 85.325C123.485 77.288 129.073 87.1511 129.073 87.1511C129.073 87.1511 131.482 85.5647 132.78 83.2254C132.78 83.2254 133.398 86.5773 129.644 90.3882C129.644 90.3882 123.496 83.6811 117.745 87.0026C111.282 90.7393 115.421 98.2261 117.715 100.609C117.715 100.609 117.451 101.564 115.823 102.128H115.826Z" fill="#1D999D"/>
<path d="M123.036 93.9727L123.891 88.1973C125.397 89.2605 126.756 91.2284 127.489 93.6757C128.756 97.8849 127.718 101.919 125.171 102.685C124.864 102.776 124.553 102.816 124.235 102.81C125.391 101.885 125.776 99.6334 125.073 97.3009C124.644 95.8765 123.891 94.7018 123.036 93.9693V93.9727Z" fill="#1D999D"/>
<path d="M118.725 88.9165C119.195 88.1908 119.816 87.6744 120.577 87.4482C121.644 87.1275 122.806 87.428 123.891 88.1976L123.036 93.973C122.246 93.3013 121.367 93.0043 120.57 93.2439C120.428 93.2844 120.289 93.3452 120.161 93.4194L118.725 88.9132V88.9165Z" fill="white"/>
<path d="M118.725 88.916L120.161 93.4223C119.026 94.0738 118.492 95.8661 118.793 97.9049C118.59 97.4459 118.411 96.9632 118.259 96.4568C117.367 93.5033 117.614 90.6308 118.725 88.9194V88.916Z" fill="#1D999D"/>
<path d="M120.161 93.4222C120.289 93.3479 120.425 93.2872 120.57 93.2466C121.367 93.007 122.246 93.3007 123.036 93.9758C123.891 94.7049 124.644 95.8795 125.073 97.3074C125.776 99.6398 125.394 101.891 124.235 102.816C122.225 102.776 120.063 100.825 118.793 97.9082C118.492 95.8694 119.026 94.077 120.161 93.4255V93.4222Z" fill="#272727"/>
<path d="M110.982 104.616C110.982 104.616 101.161 110.878 90.968 112.184C90.968 112.184 85.4983 104.444 88.87 101.068C92.2383 97.693 101.553 90.9251 110.982 104.616Z" fill="white"/>
<path d="M110.982 104.616C110.982 104.616 105.259 93.5753 93.0963 95.9685C80.9339 98.3617 87.9476 109.751 87.9476 109.751C87.9476 109.751 84.934 111.334 81.7751 111.337C81.7751 111.337 84.8867 113.882 90.9679 112.184C90.9679 112.184 87.5388 102.014 94.2484 97.9769C101.796 93.4335 107.178 101.977 108.333 105.703C108.333 105.703 109.472 105.977 110.982 104.616Z" fill="#1D999D"/>
<path d="M98.4445 107.408L91.9849 104.998C92.2247 107.162 93.4883 109.683 95.5964 111.837C99.2249 115.543 103.985 116.775 106.232 114.581C106.499 114.314 106.722 114.017 106.897 113.687C105.279 114.352 102.735 113.464 100.725 111.411C99.4952 110.156 98.7114 108.711 98.4445 107.412V107.408Z" fill="#1D999D"/>
<path d="M95.6741 100.079C94.6572 100.15 93.7686 100.498 93.0997 101.153C92.1605 102.071 91.8091 103.441 91.9882 105.001L98.4478 107.411C98.2012 106.212 98.3971 105.136 99.0998 104.45C99.2248 104.325 99.3633 104.221 99.5154 104.13L95.6775 100.079H95.6741Z" fill="white"/>
<path d="M95.674 100.079L99.5119 104.129C100.833 103.329 102.992 103.799 104.924 105.27C104.566 104.801 104.167 104.339 103.732 103.893C101.184 101.287 98.076 99.9067 95.674 100.079Z" fill="#1D999D"/>
<path d="M99.5119 104.13C99.3599 104.218 99.2214 104.326 99.0964 104.451C98.3936 105.136 98.1977 106.213 98.4443 107.411C98.7112 108.711 99.4984 110.159 100.725 111.411C102.735 113.467 105.279 114.354 106.897 113.686C107.999 111.59 107.218 108.245 104.924 105.271C102.988 103.799 100.833 103.33 99.5119 104.13Z" fill="#272727"/>
</svg>
