<svg width="24" height="24" viewBox="0 0 24 24" xmlns="http://www.w3.org/2000/svg">
<path d="M12.1682 2.61328C12.3999 2.66293 12.6271 2.73041 12.8254 2.79492L13.3098 2.95996L13.3206 2.96387C13.5852 3.05729 13.8038 3.14307 13.9573 3.20605C14.034 3.23754 14.0947 3.26389 14.137 3.28223C14.1581 3.2914 14.1751 3.29853 14.1868 3.30371L14.1887 3.30469C14.1981 3.30841 14.2115 3.31365 14.2278 3.32031C14.2609 3.33382 14.3079 3.35311 14.3674 3.37891C14.4872 3.43083 14.6585 3.50811 14.8704 3.6123C15.294 3.82072 15.8831 4.13828 16.5559 4.57715C17.8149 5.3984 19.3823 6.65547 20.7034 8.44043L20.9641 8.80469L20.9758 8.82227L20.9866 8.84082C21.0221 8.90005 21.0591 8.95503 21.1047 9.02344L21.2551 9.25781L21.3352 9.39062L21.3459 9.5459C21.3776 9.98887 21.3772 10.3977 21.3772 10.7236V10.7412L21.3762 10.7598C21.3611 11.0316 21.3456 11.2588 21.3342 11.418C21.3286 11.4974 21.3239 11.5605 21.3206 11.6035C21.3189 11.6246 21.3176 11.641 21.3167 11.6523C21.3165 11.6543 21.3158 11.6565 21.3157 11.6582L21.3167 11.6592V11.6611C21.3166 11.662 21.3158 11.6629 21.3157 11.6641C21.3156 11.6658 21.3158 11.6685 21.3157 11.6709L21.3147 11.6699C21.3146 11.6719 21.3149 11.6742 21.3147 11.6768C21.314 11.6868 21.3133 11.701 21.3118 11.7188C21.3088 11.7545 21.304 11.8059 21.2971 11.8711C21.2834 12.0015 21.2607 12.1885 21.2249 12.4229C21.1532 12.8916 21.0281 13.5518 20.8137 14.3281C20.3859 15.8776 19.5973 17.9119 18.1477 19.8135L18.1467 19.8125C18.0987 19.8765 18.0445 19.9472 17.9944 20.0117C17.9414 20.0799 17.8933 20.1422 17.8528 20.1963L17.7405 20.3457L17.5657 20.4131C17.1543 20.5713 16.7475 20.6961 16.4475 20.7861L16.4465 20.7852C16.1827 20.877 15.9573 20.9414 15.7932 20.9814C15.708 21.0022 15.6383 21.0164 15.5891 21.0264C15.5647 21.0313 15.5449 21.0354 15.5305 21.0381H15.5286C15.5208 21.04 15.5117 21.0424 15.5012 21.0449C15.4664 21.0532 15.4166 21.0653 15.3528 21.0791C15.2251 21.1066 15.0408 21.1429 14.8079 21.1816C14.3421 21.2592 13.679 21.3461 12.8772 21.3828C11.2766 21.4561 9.10303 21.333 6.84302 20.5381L6.83032 20.5342L6.81763 20.5283C6.74324 20.4986 6.66838 20.4692 6.59399 20.4395C6.5198 20.4098 6.44553 20.3803 6.37134 20.3506L6.21509 20.2881L6.10962 20.1582C5.83543 19.8231 5.59148 19.4872 5.40356 19.207V19.208C5.23245 18.9747 5.09904 18.7791 5.00806 18.6406C4.96259 18.5714 4.92776 18.5161 4.90356 18.4775C4.89153 18.4583 4.88185 18.4434 4.87524 18.4326C4.87204 18.4274 4.86933 18.4231 4.86743 18.4199L4.8645 18.4141L4.86353 18.4121C4.85848 18.4041 4.85168 18.3942 4.84399 18.3818C4.82506 18.3513 4.79819 18.3073 4.76489 18.251C4.69831 18.1384 4.60473 17.9756 4.49438 17.7666C4.27375 17.3487 3.98372 16.7455 3.69751 15.9951C3.1263 14.4976 2.56486 12.3938 2.6272 9.99219H2.62915C2.63018 9.88663 2.63849 9.78569 2.64478 9.71973C2.65222 9.64155 2.65747 9.58727 2.65747 9.53223V9.34863L2.75317 9.19141C3.00285 8.78569 3.22542 8.46873 3.44946 8.18066L3.45142 8.17773C3.6205 7.96254 3.76683 7.785 3.87134 7.66113C3.92352 7.59929 3.96517 7.55027 3.99438 7.5166C4.00898 7.49978 4.02057 7.48664 4.02856 7.47754L4.03833 7.4668C4.04456 7.45933 4.05261 7.44944 4.06274 7.4375C4.08592 7.4102 4.11905 7.3711 4.16235 7.32227C4.24903 7.22453 4.37618 7.08598 4.54126 6.91699C4.8712 6.57925 5.35635 6.11883 5.98267 5.61621C7.23299 4.61284 9.06348 3.43097 11.3704 2.74512L11.4094 2.7334L11.4485 2.72656C11.4992 2.71812 11.5514 2.70497 11.6262 2.68359C11.6907 2.66517 11.7975 2.63274 11.9045 2.61133L12.0364 2.58496L12.1682 2.61328ZM6.86646 11.8936C7.0965 12.6283 7.34579 13.2204 7.60376 13.6572C8.00605 14.3383 8.3071 14.4512 8.42896 14.4512C8.51568 14.4511 8.74811 14.3826 9.08813 13.8877C9.32191 13.5474 9.55613 13.0727 9.78345 12.4697C8.79012 12.3426 7.81763 12.1518 6.86646 11.8936ZM17.1868 12.207C16.2791 12.395 15.3526 12.5272 14.4133 12.6006C14.6248 13.1529 14.8447 13.5902 15.0657 13.9062C15.3976 14.3809 15.6307 14.4512 15.7249 14.4512C15.8324 14.451 16.1092 14.3542 16.4915 13.7461C16.7315 13.3642 16.9658 12.8478 17.1868 12.207Z" fill="#272727"/>
</svg>
